<?xml version="1.0" encoding="utf-8"?>
<!-- Generator: Adobe Illustrator 15.1.0, SVG Export Plug-In . SVG Version: 6.00 Build 0)  -->
<!DOCTYPE svg PUBLIC "-//W3C//DTD SVG 1.1 Tiny//EN" "http://www.w3.org/Graphics/SVG/1.1/DTD/svg11-tiny.dtd">
<svg version="1.1" baseProfile="tiny"
	 id="svg2" inkscape:version="0.47 r22583" sodipodi:version="0.32" sodipodi:docname="TurtleHawaiianHearts.svg" inkscape:output_extension="org.inkscape.output.svg.inkscape" xmlns:inkscape="http://www.inkscape.org/namespaces/inkscape" xmlns:sodipodi="http://sodipodi.sourceforge.net/DTD/sodipodi-0.dtd" xmlns:svg="http://www.w3.org/2000/svg" xmlns:rdf="http://www.w3.org/1999/02/22-rdf-syntax-ns#" xmlns:cc="http://creativecommons.org/ns#" xmlns:dc="http://purl.org/dc/elements/1.1/"
	 xmlns="http://www.w3.org/2000/svg" xmlns:xlink="http://www.w3.org/1999/xlink" x="0px" y="0px" width="1080px" height="1080px"
	 viewBox="0 0 1080 1080" overflow="inherit" xml:space="preserve">
<defs>
	
	
		<inkscape:perspective  inkscape:vp_x="0 : 526.18109 : 1" inkscape:vp_z="744.09448 : 526.18109 : 1" inkscape:vp_y="0 : 1000 : 0" id="perspective10" inkscape:persp3d-origin="372.04724 : 350.78739 : 1" sodipodi:type="inkscape:persp3d">
		</inkscape:perspective>
	
		<inkscape:perspective  inkscape:vp_x="0 : 526.18109 : 1" inkscape:vp_z="744.09448 : 526.18109 : 1" inkscape:vp_y="0 : 1000 : 0" id="perspective2390" inkscape:persp3d-origin="372.04724 : 350.78739 : 1" sodipodi:type="inkscape:persp3d">
		</inkscape:perspective>
</defs>
<sodipodi:namedview  showgrid="false" inkscape:current-layer="layer1" inkscape:pageopacity="0.0" inkscape:pageshadow="2" inkscape:zoom="0.35" inkscape:cx="375" inkscape:cy="748.57143" inkscape:document-units="px" gridtolerance="10000" guidetolerance="10" objecttolerance="10" id="base" borderopacity="1.0" bordercolor="#666666" pagecolor="#ffffff" inkscape:window-maximized="0" inkscape:window-height="1002" inkscape:window-width="1280" inkscape:window-y="92" inkscape:window-x="1276">
	</sodipodi:namedview>
<g id="layer1" transform="translate(0,27.637817)" inkscape:label="Layer 1" inkscape:groupmode="layer">
	<g id="XMLID_1_">
		<path d="M992.401,521.892c0,56.979-2.141,68.64-18.811,101.939c-13.7,27.38-26.13,41.69-45.74,52.63
			c-43.399,24.24-47.93,21.69-52.729-29.72c-4.561-48.82-29.32-132.09-37.73-126.899c-2.859,1.77-6.89,19.569-8.949,39.56
			c-2.07,19.979-13.271,60.09-24.891,89.12c-23.12,57.729-22.76,69.58,3.24,107.899c16.36,24.11,20.979,51.181,17.67,103.561
			c-2.67,42.38-14.92,66.92-53.83,107.8c-33.03,34.72-41.67,40.271-62.66,40.271c-27.37,0-32.51-7.381-32.51-46.66
			c0-34.4-12.47-67.761-25.34-67.761c-5.811,0-30.18,10.79-54.16,23.971c-49.17,27.029-59.79,25.89-106.73-11.41
			c-44.44-35.32-62.8-21.53-62.8,47.189c0,34.171-2.32,42.07-14.95,50.921c-16.6,11.63-22.47,12.189-42.47,4.09
			c-18.53-7.521-58.01-52.12-81.29-91.851c-16.36-27.93-19.14-39.93-19.28-83.43c-0.16-45.99,1.9-54.05,21.7-84.91
			c12.03-18.76,21.87-39.229,21.87-45.5c0-6.26-7.96-30.22-17.68-53.25c-9.73-23.03-21.31-63.06-25.74-88.979
			c-7.32-42.9-8.77-45.74-16.27-31.83c-11.89,22.09-34.53,114.25-34.53,140.6c0,18.45-2.57,22.48-14.35,22.48
			C83.29,663.372,84.21,475.372,126.47,386.892c22.96-45.34,66.07-87.7,107.21-105.33c15.91-6.82,52.93-17.35,82.24-23.38
			c29.32-6.04,66.93-17.72,83.59-25.97l30.29-14.99l0.85-40.38c0.48-22.21,4.32-49.05,8.53-59.64
			c19.28-48.38,81.48-111.99,109.5-111.99c16.32,0,71.181,51.82,91.551,86.48c13.06,22.21,19.38,43.92,21.77,74.77
			c3.23,41.71,4.46,44.23,30.29,62.05c17.45,12.04,48.59,23.23,88.53,31.81c66.819,14.35,118.71,37.27,140.88,62.24
			C973.1,380.422,992.401,434.852,992.401,521.892z M946.66,578.942c40.649-69.79,4.43-206.26-67.24-253.36
			c-27.36-17.98-86.28-36.47-93.43-29.32c-2.37,2.37,2.2,13.46,10.16,24.63c7.949,11.18,20.109,36.34,27,55.92
			c6.899,19.57,23.05,58.31,35.899,86.07c12.86,27.77,27.01,67.14,31.47,87.5c4.45,20.36,9.36,41.011,10.9,45.9
			C906.39,611.973,933.47,601.593,946.66,578.942z M803.49,501.112c4.47-23.24,3.359-26.32-11.5-31.98
			c-24.36-9.26-59.891-7.6-87.9,4.11c-34.49,14.41-48.82,29.1-48.82,50.05c0,31.29,70.23,101.03,101.82,101.101
			c6.03,0.01,14.22-8.311,18.2-18.49C783.981,583.652,796.7,536.372,803.49,501.112z M785.691,435.272
			c19.09,0.68,19.3,0.27,14.8-27.91c-2.521-15.74-12.15-41.54-21.41-57.34c-17.16-29.28-77.42-82.32-93.53-82.32
			c-4.89,0-16.83,9.43-26.53,20.96c-20.739,24.65-18.88,35.82,13.36,80.12C710.35,420.962,731.46,433.342,785.691,435.272z
			 M764.441,917.192c39.54-47.79,45.939-93.44,18.67-133.37c-9.23-13.53-21-26.22-26.15-28.21c-25.46-9.85-79.62,57.35-71.8,89.1
			c2.53,10.25,6.95,33.46,9.83,51.591C703.55,950.223,730.42,958.303,764.441,917.192z M718.26,705.382l32.76-43.369l-21.47-10.17
			c-19.76-9.36-23.37-9.11-45.64,3.079c-46.95,25.71-58.82,59.5-30.75,87.57C669.92,759.252,683.37,751.582,718.26,705.382z
			 M652.88,441.372c5.22-32.2-13.49-71.29-37.11-77.55c-23.68-6.27-34.989-3.43-53.05,13.32l-15.14,14.05L532,376.562
			c-10.2-9.58-24.17-14.63-40.48-14.63c-20.87,0-27.06,3.54-38.24,21.87c-29.37,48.18-7.29,103.39,55.85,139.6
			c19.3,11.07,35.96,20.15,37.04,20.19c1.07,0.029,13.18-5.74,26.92-12.83C610.68,511.352,648.37,469.132,652.88,441.372z
			 M608.92,288.512l42.98-39.77l-20.19-8.58c-26.35-11.2-141.75-11.25-168.26-0.07l-20.19,8.52l42.24,39.83
			C541.22,340.972,552.2,340.982,608.92,288.512z M586.71,698.582c35.72-25.87,51.15-49.939,50.34-78.52
			c-1.39-48.97-38.1-71.24-74.92-45.45c-14.09,9.86-16.37,9.86-27.27,0c-12.41-11.23-39.15-14.13-51.89-5.62
			c-13.01,8.69-22.89,33.64-22.89,57.83c0,28.05,23.9,59.4,59.71,78.32C552.06,722.192,554.45,721.952,586.71,698.582z
			 M624.5,196.552c16.31-16.32,12.64-47.61-10.73-91.46c-21.09-39.57-48.619-66.23-68.39-66.23c-16.82,0-47.75,30.39-66.24,65.07
			c-41.64,78.1-32.85,91.66,62.83,96.93c38.25,2.11,70.09,4.38,70.75,5.05C613.38,206.582,618.68,202.362,624.5,196.552z
			 M569.79,842.372c51.07-25.81,66.47-61.97,38.36-90.08c-16.16-16.17-25.841-16.83-45.44-3.1c-13.33,9.34-16.38,9.32-30.88-0.18
			c-32.22-21.11-67.36,11.189-54.9,50.449c3.61,11.381,57.97,53.79,68.94,53.79C547.18,853.252,557.941,848.352,569.79,842.372z
			 M451.12,727.962c10.23-15.619,10.44-19.52,1.83-34.68c-14.18-24.99-43.24-44.189-66.87-44.189c-36.68,0-37.97,10.819-6.59,55.55
			C412.19,751.263,431.69,757.612,451.12,727.962z M449.29,323.992c5.08-16.29-23.78-56.29-40.62-56.29
			c-5.41,0-29.1,18.93-52.65,42.06c-34.16,33.57-44.94,49.37-53.39,78.23c-5.81,19.9-8.8,39.04-6.64,42.54
			c4.59,7.42,52.08,0.95,76.3-10.39C390.32,411.702,442.09,347.052,449.29,323.992z M409.58,832.973
			c5.85-22.75-37-80.681-59.68-80.681c-25.32,0-58.08,43.54-58.08,77.181c0,22.97,15.17,58.47,37.47,87.72
			c18.83,24.68,50.36,32.47,61.26,15.14c2.91-4.62,7.4-25.069,9.98-45.43C403.11,866.542,407.18,842.272,409.58,832.973z
			 M406.13,579.502c49.18-53.81,45.32-81.03-15.06-106.26c-25.22-10.54-69.34-13.66-88.6-6.27c-5.86,2.24-10.65,10.11-10.65,17.47
			c0,15.19,15.96,75.67,31.03,117.62c9.76,27.17,10.77,27.89,29.81,21.25C363.5,619.532,387.56,599.822,406.13,579.502z
			 M295.47,333.322c9.1-17.59,16.54-33.49,16.54-35.34c0-7.32-28.25-2.67-63.16,10.39c-81.7,30.57-131,128.87-115.72,230.74
			c8.25,55.05,52.55,88.69,61.35,46.6c12.64-60.369,21.46-86.129,51.3-149.75C264.01,397.092,286.37,350.902,295.47,333.322z"/>
		<path fill="#7AC143" d="M879.42,325.582c71.67,47.1,107.89,183.57,67.24,253.36c-13.19,22.65-40.271,33.03-45.24,17.34
			c-1.54-4.89-6.45-25.54-10.9-45.9c-4.46-20.359-18.609-59.729-31.47-87.5c-12.85-27.76-29-66.5-35.899-86.07
			c-6.891-19.58-19.051-44.74-27-55.92c-7.96-11.17-12.53-22.26-10.16-24.63C793.14,289.112,852.06,307.602,879.42,325.582z"/>
		<path fill="#098040" d="M791.99,469.132c14.859,5.66,15.97,8.74,11.5,31.98c-6.79,35.26-19.51,82.54-28.2,104.79
			c-3.98,10.18-12.17,18.5-18.2,18.49c-31.59-0.07-101.82-69.811-101.82-101.101c0-20.95,14.33-35.64,48.82-50.05
			C732.1,461.532,767.63,459.872,791.99,469.132z"/>
		<path fill="#098040" d="M800.49,407.362c4.5,28.18,4.29,28.59-14.8,27.91c-54.23-1.93-75.341-14.31-113.311-66.49
			c-32.24-44.3-34.1-55.47-13.36-80.12c9.7-11.53,21.641-20.96,26.53-20.96c16.11,0,76.37,53.04,93.53,82.32
			C788.34,365.822,797.97,391.622,800.49,407.362z"/>
		<path fill="#7AC143" d="M783.111,783.822c27.27,39.93,20.87,85.58-18.67,133.37c-34.021,41.11-60.891,33.03-69.45-20.89
			c-2.88-18.131-7.3-41.341-9.83-51.591c-7.82-31.75,46.34-98.949,71.8-89.1C762.111,757.602,773.88,770.292,783.111,783.822z"/>
		<path fill="#098040" d="M751.02,662.013l-32.76,43.369c-34.89,46.2-48.34,53.87-65.1,37.11c-28.07-28.07-16.2-61.86,30.75-87.57
			c22.27-12.189,25.88-12.439,45.64-3.079L751.02,662.013z"/>
		<path fill="#098040" d="M615.77,363.822c23.62,6.26,42.33,45.35,37.11,77.55c-4.51,27.76-42.2,69.98-79.79,89.391
			c-13.74,7.09-25.85,12.859-26.92,12.83c-1.08-0.04-17.74-9.12-37.04-20.19c-63.14-36.21-85.22-91.42-55.85-139.6
			c11.18-18.33,17.37-21.87,38.24-21.87c16.31,0,30.28,5.05,40.48,14.63l15.58,14.63l15.14-14.05
			C580.781,360.392,592.09,357.552,615.77,363.822z"/>
		<path fill="#098040" d="M651.901,248.742l-42.98,39.77c-56.72,52.47-67.7,52.46-123.42-0.07l-42.24-39.83l20.19-8.52
			c26.51-11.18,141.91-11.13,168.26,0.07L651.901,248.742z"/>
		<path fill="#098040" d="M637.05,620.062c0.811,28.58-14.62,52.649-50.34,78.52c-32.26,23.37-34.65,23.61-66.92,6.561
			c-35.81-18.92-59.71-50.271-59.71-78.32c0-24.19,9.88-49.14,22.89-57.83c12.74-8.51,39.48-5.61,51.89,5.62
			c10.9,9.86,13.18,9.86,27.27,0C598.95,548.822,635.66,571.093,637.05,620.062z"/>
		<path fill="#7AC143" d="M613.77,105.092c23.37,43.85,27.04,75.14,10.73,91.46c-5.82,5.81-11.12,10.03-11.78,9.36
			c-0.66-0.67-32.5-2.94-70.75-5.05c-95.68-5.27-104.47-18.83-62.83-96.93c18.49-34.68,49.42-65.07,66.24-65.07
			C565.151,38.862,592.68,65.522,613.77,105.092z"/>
		<path fill="#098040" d="M608.151,752.292c28.109,28.11,12.71,64.271-38.36,90.08c-11.85,5.98-22.61,10.88-23.92,10.88
			c-10.97,0-65.33-42.409-68.94-53.79c-12.46-39.26,22.68-71.56,54.9-50.449c14.5,9.5,17.55,9.52,30.88,0.18
			C582.31,735.462,591.99,736.122,608.151,752.292z"/>
		<path fill="#098040" d="M452.95,693.282c8.61,15.16,8.4,19.061-1.83,34.68c-19.43,29.65-38.93,23.301-71.63-23.319
			c-31.38-44.73-30.09-55.55,6.59-55.55C409.71,649.093,438.77,668.292,452.95,693.282z"/>
		<path fill="#098040" d="M408.67,267.702c16.84,0,45.7,40,40.62,56.29c-7.2,23.06-58.97,87.71-77,96.15
			c-24.22,11.34-71.71,17.81-76.3,10.39c-2.16-3.5,0.83-22.64,6.64-42.54c8.45-28.86,19.23-44.66,53.39-78.23
			C379.57,286.632,403.26,267.702,408.67,267.702z"/>
		<path fill="#7AC143" d="M349.9,752.292c22.68,0,65.53,57.931,59.68,80.681c-2.4,9.3-6.47,33.569-9.05,53.93
			c-2.58,20.36-7.07,40.81-9.98,45.43c-10.9,17.33-42.43,9.54-61.26-15.14c-22.3-29.25-37.47-64.75-37.47-87.72
			C291.82,795.832,324.58,752.292,349.9,752.292z"/>
		<path fill="#098040" d="M391.07,473.242c60.38,25.23,64.24,52.45,15.06,106.26c-18.57,20.32-42.63,40.03-53.47,43.811
			c-19.04,6.64-20.05,5.92-29.81-21.25c-15.07-41.95-31.03-102.43-31.03-117.62c0-7.36,4.79-15.23,10.65-17.47
			C321.73,459.582,365.85,462.702,391.07,473.242z"/>
		<path fill="#7AC143" d="M312.01,297.982c0,1.85-7.44,17.75-16.54,35.34c-9.1,17.58-31.46,63.77-49.69,102.64
			c-29.84,63.62-38.66,89.38-51.3,149.75c-8.8,42.091-53.1,8.45-61.35-46.6c-15.28-101.87,34.02-200.17,115.72-230.74
			C283.76,295.312,312.01,290.662,312.01,297.982z"/>
	</g>
</g>
</svg>
