<?xml version="1.0" encoding="UTF-8" standalone="no"?>
<!-- Created with Inkscape (http://www.inkscape.org/) -->
<svg
   xmlns:dc="http://purl.org/dc/elements/1.1/"
   xmlns:cc="http://creativecommons.org/ns#"
   xmlns:rdf="http://www.w3.org/1999/02/22-rdf-syntax-ns#"
   xmlns:svg="http://www.w3.org/2000/svg"
   xmlns="http://www.w3.org/2000/svg"
   xmlns:sodipodi="http://sodipodi.sourceforge.net/DTD/sodipodi-0.dtd"
   xmlns:inkscape="http://www.inkscape.org/namespaces/inkscape"
   width="744.09448819"
   height="1052.3622047"
   id="svg2"
   sodipodi:version="0.32"
   inkscape:version="0.46"
   sodipodi:docname="FarmerPigSheepCow.svg"
   inkscape:output_extension="org.inkscape.output.svg.inkscape">
  <defs
     id="defs4">
    <inkscape:perspective
       sodipodi:type="inkscape:persp3d"
       inkscape:vp_x="0 : 526.18109 : 1"
       inkscape:vp_y="0 : 1000 : 0"
       inkscape:vp_z="744.09448 : 526.18109 : 1"
       inkscape:persp3d-origin="372.04724 : 350.78739 : 1"
       id="perspective10" />
    <inkscape:perspective
       id="perspective2390"
       inkscape:persp3d-origin="372.04724 : 350.78739 : 1"
       inkscape:vp_z="744.09448 : 526.18109 : 1"
       inkscape:vp_y="0 : 1000 : 0"
       inkscape:vp_x="0 : 526.18109 : 1"
       sodipodi:type="inkscape:persp3d" />
    <inkscape:perspective
       id="perspective2403"
       inkscape:persp3d-origin="372.04724 : 350.78739 : 1"
       inkscape:vp_z="744.09448 : 526.18109 : 1"
       inkscape:vp_y="0 : 1000 : 0"
       inkscape:vp_x="0 : 526.18109 : 1"
       sodipodi:type="inkscape:persp3d" />
    <inkscape:perspective
       id="perspective2416"
       inkscape:persp3d-origin="372.04724 : 350.78739 : 1"
       inkscape:vp_z="744.09448 : 526.18109 : 1"
       inkscape:vp_y="0 : 1000 : 0"
       inkscape:vp_x="0 : 526.18109 : 1"
       sodipodi:type="inkscape:persp3d" />
    <inkscape:perspective
       id="perspective2429"
       inkscape:persp3d-origin="372.04724 : 350.78739 : 1"
       inkscape:vp_z="744.09448 : 526.18109 : 1"
       inkscape:vp_y="0 : 1000 : 0"
       inkscape:vp_x="0 : 526.18109 : 1"
       sodipodi:type="inkscape:persp3d" />
    <inkscape:perspective
       id="perspective2563"
       inkscape:persp3d-origin="372.04724 : 350.78739 : 1"
       inkscape:vp_z="744.09448 : 526.18109 : 1"
       inkscape:vp_y="0 : 1000 : 0"
       inkscape:vp_x="0 : 526.18109 : 1"
       sodipodi:type="inkscape:persp3d" />
    <inkscape:perspective
       id="perspective2599"
       inkscape:persp3d-origin="372.04724 : 350.78739 : 1"
       inkscape:vp_z="744.09448 : 526.18109 : 1"
       inkscape:vp_y="0 : 1000 : 0"
       inkscape:vp_x="0 : 526.18109 : 1"
       sodipodi:type="inkscape:persp3d" />
    <inkscape:perspective
       id="perspective4138"
       inkscape:persp3d-origin="372.04724 : 350.78739 : 1"
       inkscape:vp_z="744.09448 : 526.18109 : 1"
       inkscape:vp_y="0 : 1000 : 0"
       inkscape:vp_x="0 : 526.18109 : 1"
       sodipodi:type="inkscape:persp3d" />
    <inkscape:perspective
       id="perspective4252"
       inkscape:persp3d-origin="372.04724 : 350.78739 : 1"
       inkscape:vp_z="744.09448 : 526.18109 : 1"
       inkscape:vp_y="0 : 1000 : 0"
       inkscape:vp_x="0 : 526.18109 : 1"
       sodipodi:type="inkscape:persp3d" />
    <inkscape:perspective
       id="perspective4265"
       inkscape:persp3d-origin="372.04724 : 350.78739 : 1"
       inkscape:vp_z="744.09448 : 526.18109 : 1"
       inkscape:vp_y="0 : 1000 : 0"
       inkscape:vp_x="0 : 526.18109 : 1"
       sodipodi:type="inkscape:persp3d" />
  </defs>
  <sodipodi:namedview
     id="base"
     pagecolor="#ffffff"
     bordercolor="#666666"
     borderopacity="1.0"
     gridtolerance="10000"
     guidetolerance="10"
     objecttolerance="10"
     inkscape:pageopacity="0.0"
     inkscape:pageshadow="2"
     inkscape:zoom="0.13203295"
     inkscape:cx="430.8547"
     inkscape:cy="-323.85231"
     inkscape:document-units="px"
     inkscape:current-layer="layer1"
     showgrid="false"
     inkscape:window-width="1280"
     inkscape:window-height="1002"
     inkscape:window-x="1276"
     inkscape:window-y="92"
     showguides="true"
     inkscape:guide-bbox="true" />
  <metadata
     id="metadata7">
    <rdf:RDF>
      <cc:Work
         rdf:about="">
        <dc:format>image/svg+xml</dc:format>
        <dc:type
           rdf:resource="http://purl.org/dc/dcmitype/StillImage" />
      </cc:Work>
    </rdf:RDF>
  </metadata>
  <g
     inkscape:label="Layer 1"
     inkscape:groupmode="layer"
     id="layer1">
    <path
       style="fill:#000000"
       d="M 117.38391,32.838122 C 101.59549,32.986465 109.40708,64.237102 89.415158,53.588122 C 76.091068,49.790385 57.872508,48.684822 51.258908,63.431872 C 49.493948,80.416721 65.370348,95.601802 80.602658,100.05687 C 93.901938,120.17477 78.193348,118.1391 74.258908,126.99437 C 59.878028,130.65574 47.967298,148.02923 38.165158,160.18187 C 32.290368,171.94258 20.545658,181.48744 18.040158,195.36937 C 16.589348,213.04986 28.056908,231.65359 38.915158,244.65062 C 36.594468,251.87922 39.832298,269.39056 38.383908,275.55687 C 36.899918,310.00029 36.062258,344.9941 44.071408,378.74437 C 46.862068,396.38213 47.782158,414.67367 53.665158,431.61937 C 44.050588,458.38265 29.413058,476.63815 31.196408,479.40062 C 31.780858,488.30917 55.606418,485.74318 63.790158,487.40062 C 80.844638,487.18131 98.719238,487.8857 115.04016,483.11937 C 121.28437,470.62645 113.93692,455.47971 111.85266,439.24437 C 108.12533,406.96281 89.829488,366.95849 112.63391,340.86937 C 137.79209,342.23899 136.94515,404.1667 141.38391,428.83812 C 146.88788,444.34221 137.5923,455.30775 141.60984,471.25802 C 137.73091,484.34079 156.95652,487.205 166.07859,487.69552 C 169.33641,490.98161 173.25646,491.09591 176.25378,487.77625 C 180.3406,488.51093 187.54044,487.92287 190.07141,488.15062 C 199.44033,487.3568 219.37689,489.5963 218.58793,479.41822 C 212.57122,463.20773 202.13616,455.05004 197.07141,441.93187 C 186.47044,426.74996 196.38864,399.73167 193.29016,380.21312 C 192.3854,353.30604 197.19742,326.6034 196.29016,299.61937 C 197.71029,282.14042 194.41169,257.71556 200.88391,244.49437 C 218.58409,247.00242 226.74159,227.44665 222.79016,211.55687 C 223.28901,195.60548 210.80124,189.16709 201.82141,177.58812 C 205.13929,158.23692 205.1773,138.10232 210.50891,119.24437 C 228.46774,113.31156 229.81718,94.056852 228.85266,77.869372 C 227.32921,67.140201 232.17385,47.674382 225.16516,41.963122 C 221.49093,60.261475 223.3418,79.403672 219.60266,97.744372 C 216.14183,108.61015 205.66577,107.53204 209.38391,95.744372 C 208.95868,76.910071 212.72203,57.738872 209.63391,39.150622 C 199.11767,44.676125 212.40138,80.966482 192.29016,62.775622 C 179.21598,64.003371 194.79879,31.045942 183.22766,38.056872 C 180.3932,47.294225 179.0533,73.156102 167.97766,58.400622 C 173.41151,37.826111 154.3701,34.699722 139.94641,40.681872 C 132.45018,37.543596 126.02499,30.968262 117.38391,32.838122 z M 181.72766,111.61937 C 189.6415,113.33816 203.04056,126.17768 186.38391,118.68187 C 178.145,116.00526 161.04351,133.52885 173.13391,117.18187 C 175.66421,115.0226 178.3027,112.2254 181.72766,111.61937 z M 192.85266,127.11937 C 199.87832,136.77723 196.78521,157.10565 193.16516,164.80687 C 182.53481,156.10085 196.91024,142.28152 183.63391,135.24437 C 187.62343,133.34348 190.67326,130.79044 192.85266,127.11937 z M 140.22766,476.36937 C 156.73238,480.96418 196.80565,480.83346 215.28614,479.86827 C 196.19233,481.86484 154.79844,483.15269 140.22766,476.36937 z M 36.071408,479.61937 C 58.547178,480.34489 79.737928,480.44295 101.47766,482.68187 C 108.49908,483.40499 57.098108,481.73897 36.071408,479.61937 z"
       id="path5711"
       sodipodi:nodetypes="cccccccccccccccccccccccccccccccccccccccccccccccccccsc" />
    <path
       style="fill:#c87137"
       d="M 117.54016,35.681872 C 116.53714,35.679916 115.49345,35.793713 114.38391,36.056872 C 105.38403,43.745438 107.41742,53.16486 104.79016,62.088122 C 88.646498,61.015298 83.522158,59.92035 76.727658,53.713122 C 63.519998,54.247077 52.294298,63.047606 56.946408,77.713122 C 61.118668,89.64478 82.666978,108.83109 87.821408,90.994372 C 96.505488,94.001008 107.66741,69.712392 95.977658,78.556872 C 88.007998,76.21987 111.76382,68.332664 118.10266,70.588122 C 136.10605,68.899046 154.56611,73.032168 169.38391,83.150622 C 179.82478,93.325978 161.473,80.90717 163.57141,87.963122 C 162.53539,102.20945 174.99972,95.663165 176.29016,106.90062 C 186.09248,107.33607 174.98315,86.783541 178.25891,79.025622 C 178.56387,69.854996 183.4848,73.079835 185.28104,71.213122 C 184.97051,80.4444 186.20604,93.804788 189.82141,99.213122 C 202.57201,99.855673 206.26662,68.996251 189.04016,66.463122 C 181.62475,66.108895 172.30356,67.264307 164.22766,67.181872 C 165.28076,65.8309 165.64169,63.218671 164.94641,58.619372 C 171.25895,43.456608 155.44866,41.56263 145.25891,45.463122 C 132.56776,46.874526 127.23598,35.700783 117.54016,35.681872 z M 114.63391,56.369372 C 119.09717,56.270874 164.38312,60.471939 159.85266,65.431872 C 153.65208,64.466056 120.46285,59.40165 112.75891,60.713122 C 113.57651,60.63009 113.76318,56.388587 114.63391,56.369372 z"
       id="path5709"
       sodipodi:nodetypes="ccccccccccccccccccccccc" />
    <path
       style="fill:#b3b3b3"
       d="M 208.25891,47.431872 C 210.99864,61.578334 206.79501,78.632191 208.63391,93.931872 C 205.75175,104.59267 211.67708,116.7181 220.79016,100.54124 C 224.65809,94.753471 226.32243,25.622681 226.92167,48.366716 C 230.20664,106.68351 224.24529,112.8288 210.94641,115.02562 C 209.03863,120.83267 207.54179,135.95234 199.10266,127.49437 C 194.0992,111.13499 213.06478,119.36164 198.50891,115.24437 C 171.33843,114.64231 179.69549,52.423583 184.82271,38.056824 C 185.07483,47.980156 177.45381,114.89072 200.15735,103.20531 C 202.38818,83.985663 206.48172,66.698228 208.25891,47.431872 z"
       id="path5707"
       sodipodi:nodetypes="cccccccccc" />
    <path
       style="fill:#800000"
       d="M 87.602658,120.27562 C 70.935458,133.47484 73.330758,150.78882 75.071408,176.11937 C 87.141288,181.90963 107.18161,172.905 121.44641,168.68187 C 124.92118,165.21204 161.6357,147.79912 168.14254,137.61689 C 177.88209,160.62968 195.41782,151.01258 181.97766,140.90062 C 183.38746,144.2884 177.88949,139.65135 172.88391,135.61937 C 177.40157,137.54396 179.5174,132.66891 175.47766,130.96312 C 191.60747,130.70506 197.80498,125.10175 184.13391,121.77562 C 180.53201,123.02222 166.99905,125.33123 167.04016,130.11937 C 167.12977,130.93004 167.0618,132.31515 166.41516,132.68187 C 168.01977,135.54071 141.71277,151.89927 136.54016,150.68187 C 106.68353,153.20551 91.170998,132.30465 87.602658,120.27562 z M 87.446408,128.77562 C 87.837188,131.82851 88.446998,135.78977 89.258908,140.86937 C 83.269808,148.64924 100.68862,160.82059 96.165158,160.33812 C 81.209948,152.76053 85.445188,140.64768 87.446408,128.77562 z M 94.727658,142.77562 C 105.62824,161.59921 125.90218,154.35058 133.54016,152.86937 C 122.90654,159.25533 106.09831,157.80892 96.946408,149.55687 C 99.962388,150.00936 93.936528,143.78914 94.727658,142.77562 z M 103.66516,161.30687 C 108.77769,164.40004 98.372568,164.84249 103.66516,161.30687 z"
       id="path5685"
       sodipodi:nodetypes="cccccccccccccccccccccc" />
    <path
       style="fill:#ffe6d5"
       d="M 128.29016,73.150622 C 123.77312,76.233984 119.34275,76.894092 116.66516,82.181872 C 119.27509,71.106128 110.65528,75.463417 108.57141,83.056872 C 107.10761,77.805306 108.66515,72.398307 103.16516,81.713122 C 101.6321,85.26054 99.989148,89.131588 98.508908,93.181872 C 96.803538,87.286981 86.918618,91.97622 86.790158,96.650622 C 83.967778,109.90893 92.113758,105.92991 96.290158,99.900622 C 94.145618,107.03044 92.790918,114.36596 93.383908,121.02562 C 96.211398,156.05786 170.60938,157.53912 165.29016,115.15062 C 165.55131,113.68076 165.66265,111.96092 165.63391,110.08812 C 169.71388,123.00898 181.57346,102.9039 166.04016,99.838122 L 165.04016,103.58812 C 163.23005,91.689546 158.26102,72.594546 149.92818,86.654534 C 146.309,66.02124 130.47043,81.797546 128.29016,73.150622 z M 131.82141,84.088122 C 135.51581,86.692872 126.05951,87.071994 131.82141,84.088122 z M 138.47766,86.275622 C 144.87418,88.867281 133.64408,89.490103 138.47766,86.275622 z M 129.88391,92.213122 C 127.71853,98.595747 129.92583,117.22768 135.94641,101.71312 C 134.56922,89.227103 138.27887,94.411326 139.07141,103.49437 C 132.8222,120.8921 118.31291,101.56957 129.88391,92.213122 z M 114.69641,107.08812 C 111.12738,120.96704 121.80937,130.81683 135.1287,129.05818 C 114.04103,133.05909 112.72636,125.52916 111.04016,115.43187 C 93.288108,116.00905 111.40754,117.07062 114.69641,107.08812 z M 193.60266,203.71312 L 191.69641,204.24437 L 190.16516,205.96312 C 186.83598,218.35538 178.76299,242.2022 199.38391,242.11937 C 215.38089,234.70227 212.06227,206.28262 193.60266,203.71312 z"
       id="path5701"
       sodipodi:nodetypes="ccccccccccccccccccccccccccccccc" />
    <path
       style="fill:#668000"
       d="M 70.946408,134.21312 C 70.393598,134.2604 69.706908,134.45427 68.883908,134.80687 C 53.671318,141.09661 48.855858,156.61214 38.758908,167.02562 C 35.687008,170.78148 20.264138,188.06521 22.071408,199.46312 C 24.805798,217.42296 34.313038,239.89855 48.383908,245.61937 C 58.142498,258.20681 80.724628,233.39057 66.321408,224.24437 C 53.741418,208.64292 62.694628,186.69056 37.633908,190.24437 C 47.003058,182.05364 62.167678,195.81468 60.290158,209.99437 C 64.377458,228.31397 83.891278,221.1488 98.477658,221.11937 C 113.60408,222.42951 130.09061,219.70522 143.16516,221.08812 C 155.06013,221.34299 178.15819,232.68459 183.85266,217.74437 C 178.26383,206.09294 199.06383,200.89943 190.04016,192.11937 C 175.81458,204.5059 189.04079,188.95219 195.07141,185.11937 C 198.33434,170.44476 183.44142,157.16445 173.19641,147.68187 C 160.72343,131.31729 160.63449,178.75887 159.10266,155.43187 C 159.65453,151.377 166.11082,146.07874 162.85266,144.74437 C 142.16941,160.01133 119.35104,171.38287 96.446408,179.36937 C 81.923008,188.0611 67.964678,180.62349 65.258908,200.27562 C 55.946958,195.72329 74.916518,177.53554 70.008908,166.61937 C 64.130378,158.64065 77.584428,134.86783 71.446408,134.21312 C 71.287668,134.19619 71.130678,134.19736 70.946408,134.21312 z M 176.41516,174.21312 C 177.79718,173.84534 181.62961,187.28908 180.32141,193.77562 C 182.23764,197.73576 183.40427,199.64052 183.91516,200.40062 C 183.21535,199.44076 181.15693,196.97461 177.47766,194.55687 C 174.43351,191.84603 173.3834,183.76959 172.85266,181.52562 C 176.28692,188.17682 174.95285,187.49713 178.60266,193.33812 C 180.38365,187.052 175.87437,174.35704 176.41516,174.21312 z M 107.94641,185.40062 C 113.30125,186.52153 133.45712,191.1873 136.13391,186.71312 C 137.30058,193.07 128.40276,188.58725 120.35266,189.33812 C 112.06097,187.79707 110.38412,189.69879 107.94641,185.40062 z M 205.94641,190.40062 C 200.0694,193.1625 202.8194,203.18557 204.97766,206.40062 C 210.69767,212.94745 213.27181,227.30225 211.69641,231.77562 C 207.41671,247.3681 221.42127,232.65412 221.19641,220.49437 C 223.67451,213.05365 215.28027,195.97757 205.94641,190.40062 z M 33.008908,198.68187 C 36.893118,207.12127 23.617038,202.01716 33.008908,198.68187 z M 208.47766,200.08812 C 212.78551,200.30062 217.13622,210.25317 218.47766,212.99437 C 210.18458,201.70236 208.45894,202.12998 206.57141,203.80687 C 206.47499,203.04151 206.31112,202.1386 206.10266,201.08812 C 206.87758,200.35255 207.67991,200.04877 208.47766,200.08812 z M 136.07141,212.40062 C 152.34921,217.34448 123.15127,215.0952 136.07141,212.40062 z M 87.883908,214.11937 C 99.630518,214.9583 76.333678,215.01951 87.883908,214.11937 z M 104.97766,214.11937 C 114.21052,215.03496 95.933718,215.09468 104.97766,214.11937 z M 154.00891,215.43187 C 169.9318,219.03583 141.06303,215.98758 154.00891,215.43187 z"
       id="path5675" />
    <path
       id="path5677"
       style="fill:#552200"
       d="M 206.25501,131.09854 C 205.27028,149.03673 201.71111,164.33694 201.44641,178.90062 C 199.87394,184.39996 199.02048,215.41295 195.02063,196.99047 C 196.23865,190.1585 197.44212,151.91763 199.05188,131.07639 C 199.54373,127.11376 202.68777,133.85085 206.25501,131.09854 z M 191.11307,242.17926 C 193.37805,242.97437 196.36225,243.1244 197.15753,245.49945 C 192.667,316.40858 184.29065,386.70586 177.60266,457.40062 C 175.5748,466.30293 181.0462,493.98858 168.47766,488.43187 C 176.30161,406.39596 182.05893,324.10503 191.11307,242.17926 z"
       sodipodi:nodetypes="cccccccccc" />
    <path
       style="fill:#002255"
       d="M 105.10266,221.99437 C 104.55862,221.98372 103.95023,222.058 103.29016,222.21312 C 92.721638,221.53033 82.936128,226.99191 72.415158,225.86937 C 71.049198,239.22524 85.734628,222.3637 77.352658,231.90062 C 70.624698,241.0126 58.063408,258.9525 49.071408,257.24437 C 60.219168,247.26423 39.653168,246.39454 41.946408,258.77562 C 43.150778,281.9641 40.248398,305.45871 41.290158,328.80687 C 44.235318,351.58643 45.758588,374.61294 49.321408,397.36937 C 52.797308,409.70785 52.313018,427.89532 61.383908,435.08812 C 85.060318,436.61739 47.830348,433.05027 50.352658,447.15062 C 56.471448,447.85948 71.782718,441.98263 81.571408,447.30687 C 74.615118,449.21609 51.538768,441.84596 46.227658,458.36937 C 62.198648,454.45896 79.674168,452.61436 96.040158,456.46312 C 104.28147,452.60469 117.26225,477.04605 115.04016,467.02562 C 110.73886,450.58711 88.589438,441.50526 76.977658,439.36937 C 80.827098,435.92182 102.75478,447.27305 110.04016,454.65062 C 119.05545,440.13611 100.19258,425.24638 102.72766,408.96312 C 96.096218,405.08862 106.13654,398.08328 98.977658,393.68187 C 94.710028,379.53777 96.295558,364.31563 102.44641,351.46312 C 82.348828,349.88016 111.28954,341.15994 119.50891,338.21312 C 123.17487,335.91803 144.56143,322.76555 137.54016,331.52562 C 120.75627,339.0166 136.43219,336.39652 144.88391,336.27562 C 165.34562,339.43228 144.50513,342.07491 135.57141,340.58812 C 120.04232,336.62083 134.20969,348.61989 134.16516,357.02562 C 138.19179,375.24969 135.74521,395.58206 143.47766,412.30687 C 144.75979,421.23849 144.11892,433.49975 146.38391,443.86937 C 147.25999,440.49391 169.33666,434.98917 159.47766,442.46312 C 157.86968,444.57356 136.74324,453.67272 147.85266,451.58812 C 161.06076,446.02687 145.81308,452.83173 144.04016,459.27562 C 146.58521,458.08945 163.96487,455.09087 167.97766,452.93187 C 169.87949,441.12397 153.45468,450.82854 168.79016,440.83812 C 172.67214,410.38846 177.0524,382.68217 178.60266,353.36937 C 182.3596,327.76972 184.15635,301.61814 185.29016,275.90062 C 190.7361,262.82183 178.61847,257.38933 170.19641,249.86937 C 160.05091,236.7876 171.80483,242.98312 176.88391,251.18187 C 190.04422,267.68535 186.77767,245.91109 182.13391,237.46312 C 190.92281,225.65737 160.97879,222.50396 164.19641,232.18187 C 165.32927,249.25518 160.92052,223.44799 154.50891,225.77562 C 146.03264,228.23912 123.62766,218.89818 126.44641,230.24437 C 119.62007,253.61859 128.03934,215.12825 113.44641,223.96312 C 109.05182,239.32639 113.26324,222.15407 105.10266,221.99437 z M 88.383908,227.24437 L 87.977658,228.36937 C 83.297638,235.66107 83.066178,228.41092 88.383908,227.24437 z M 83.258908,235.80687 C 73.906458,247.96155 74.394298,240.08627 83.258908,235.80687 z M 110.19641,238.96312 C 112.7365,244.97296 105.82574,242.90058 110.19641,238.96312 z M 160.63391,246.99437 C 165.50836,251.05208 160.54436,251.05616 160.63391,246.99437 z M 69.102658,248.93187 C 61.624758,260.22968 58.281548,253.51507 69.102658,248.93187 z M 110.19641,256.08812 C 112.7365,262.09797 105.82574,260.02557 110.19641,256.08812 z M 55.977658,260.52562 C 50.709448,266.57839 43.089928,264.93543 55.977658,260.52562 z M 122.60266,262.90062 C 124.74282,265.31134 120.74026,268.62212 122.60266,262.90062 z M 174.35266,263.24437 C 187.04528,263.91455 170.88393,275.32832 174.35266,263.24437 z M 123.07141,275.02562 C 128.21252,281.61143 118.40138,283.47686 123.07141,275.02562 z M 149.04016,323.68187 C 145.52165,332.25177 138.35748,326.77209 149.04016,323.68187 z M 190.88391,358.40062 C 186.81399,389.90146 183.30772,422.51189 180.97766,453.18187 C 180.37036,455.87637 188.74182,454.86471 190.25891,454.77562 C 206.47496,459.78722 197.9465,446.97653 188.47766,444.52562 C 191.07628,441.76197 192.75872,437.30095 189.07141,435.36937 C 190.39902,415.3021 193.04574,394.96857 190.85266,374.83812 C 191.00518,369.36213 191.4081,363.87067 190.88391,358.40062 z M 55.821408,387.68187 C 61.558628,390.99353 69.208228,404.55995 77.008908,397.05687 C 68.249848,411.03577 56.137348,402.87487 55.821408,387.68187 z M 85.227658,387.68187 C 92.130898,390.20078 78.148788,390.88094 85.227658,387.68187 z M 154.47766,392.36937 L 156.72766,393.61937 L 159.97766,394.99437 C 177.38751,396.15778 153.90973,405.29329 154.47766,392.36937 z"
       id="path5619" />
    <path
       id="path4861"
       style="fill:#008000"
       d="M 472.23789,1020.5504 C 471.47435,1016.5514 472.33637,1001.6189 473.39168,1000.5635 C 474.88502,999.07021 476.46994,1004.1676 476.43442,1010.3496 C 476.38796,1018.4402 475.36876,1024.17 473.97611,1024.17 C 473.4002,1024.17 472.61799,1022.5412 472.23789,1020.5504 z M 541.92821,1019.059 C 539.35342,1013.223 539.12241,1010.5865 541.24798,1011.295 C 543.06836,1011.9018 546.44542,1022.6142 545.08197,1023.4568 C 544.55759,1023.7809 543.1384,1021.8019 541.92821,1019.059 z M 565.11462,1022.7056 C 564.30915,1021.9001 561.67339,1021.1422 559.25737,1021.0213 C 555.19351,1020.8179 554.80747,1020.4102 554.10176,1015.5755 C 553.68221,1012.7012 552.29073,1007.9803 551.00958,1005.0846 C 547.50356,997.16011 546.36079,992.66091 547.25932,990.31941 C 547.91498,988.61081 548.3182,988.81301 549.37849,991.38201 C 552.79756,999.66631 554.16847,1003.9992 554.18666,1006.5788 C 554.21262,1010.2589 557.59222,1018.2548 558.49335,1016.7681 C 558.87793,1016.1336 558.9667,1011.8596 558.6906,1007.2703 C 558.19251,998.99101 559.56877,993.89661 562.30354,993.89661 C 563.23363,993.89661 563.53803,996.86121 563.18202,1002.4522 C 562.88239,1007.1577 563.10955,1011.0077 563.68681,1011.0077 C 564.26405,1011.0077 564.73636,1009.8231 564.73636,1008.3752 C 564.73636,1006.8439 565.61385,1005.7427 566.83423,1005.7427 C 568.61371,1005.7427 568.78124,1006.7915 567.93814,1012.653 C 567.39145,1016.4536 567.00292,1020.5997 567.0747,1021.8666 C 567.22806,1024.5729 567.05575,1024.6467 565.11462,1022.7056 z M 671.35138,1021.8198 C 667.00188,1018.8957 666.13068,1017.5525 666.10658,1013.7336 C 666.09548,1011.9752 665.53558,1008.7175 664.86228,1006.4943 C 661.94618,996.86591 661.13728,992.58041 662.23588,992.58041 C 662.87818,992.58041 663.74698,994.20921 664.16648,996.20001 C 664.58598,998.19081 665.48568,1000.8482 666.16588,1002.1052 C 666.84618,1003.3623 667.40268,1006.3994 667.40268,1008.8543 C 667.40268,1011.3092 668.29108,1014.0552 669.37698,1014.9564 C 671.08788,1016.3763 671.37218,1015.6511 671.50728,1009.5236 C 671.59308,1005.6343 671.56708,1001.7118 671.44958,1000.8069 C 671.33208,999.90201 671.85428,999.16161 672.60988,999.16161 C 673.36558,999.16161 673.99288,997.23661 674.00398,994.88381 C 674.01508,992.53101 674.64368,989.71761 675.40098,988.63171 C 676.37448,987.23561 676.55598,991.47581 676.02048,1003.1103 C 675.38318,1016.9564 674.90938,1024.4248 674.68898,1024.101 C 674.66308,1024.063 673.16118,1023.0365 671.35138,1021.8198 z M 679.24878,1023.7573 C 679.24878,1023.2407 679.80868,1021.7896 680.49308,1020.5325 C 681.17748,1019.2755 682.08158,1016.0853 682.50228,1013.4434 C 683.35758,1008.0717 686.37668,1004.4713 687.52228,1007.4568 C 687.89818,1008.4365 686.73768,1012.1535 684.94328,1015.7169 C 681.73198,1022.0939 679.24878,1025.6001 679.24878,1023.7573 z M 587.33225,1021.0282 C 585.34771,1018.4311 581.8468,1008.4106 581.86756,1005.387 C 581.89586,1001.2662 583.79961,1004.4522 586.60256,1013.3111 C 587.97508,1017.649 589.5321,1020.2213 590.78539,1020.2213 C 592.50608,1020.2213 592.66458,1018.0398 591.93258,1004.4265 C 591.46548,995.73941 591.57338,988.63171 592.17238,988.63171 C 593.24668,988.63171 593.92008,996.91421 594.20558,1013.6402 C 594.34198,1021.6273 594.15568,1022.2056 591.40168,1022.3445 C 589.77919,1022.4263 587.94795,1021.834 587.33225,1021.0282 z M 599.28748,1021.8921 C 598.38258,1021.5764 597.67978,1020.0349 597.72568,1018.4664 C 597.80398,1015.7898 597.88898,1015.8148 599.10948,1018.8734 C 600.17138,1021.5347 600.63518,1021.7761 601.63838,1020.1896 C 602.31398,1019.1212 602.87588,1017.2104 602.88698,1015.9436 C 602.89808,1014.6767 603.39688,1013.6402 603.99548,1013.6402 C 605.62268,1013.6402 604.18918,1021.2732 602.44168,1021.9133 C 601.61178,1022.2173 600.19238,1022.2077 599.28748,1021.8921 z M 432.45477,1020.2213 C 432.00736,1019.4974 432.26855,1018.9051 433.0352,1018.9051 C 433.80186,1018.9051 434.42912,1019.4974 434.42912,1020.2213 C 434.42912,1020.9453 434.16793,1021.5376 433.84869,1021.5376 C 433.52945,1021.5376 432.90218,1020.9453 432.45477,1020.2213 z M 444.959,1017.5889 C 444.959,1015.4171 444.496,1013.6402 443.93013,1013.6402 C 442.115,1013.6402 439.36727,1002.1442 440.63916,999.87151 C 442.80238,996.00601 448.49242,1011.3999 447.79617,1019.2342 C 447.44466,1023.1896 444.959,1021.7481 444.959,1017.5889 z M 452.42393,1016.2726 C 451.1786,1010.3823 449.63213,986.44411 450.55321,987.31551 C 451.89086,988.58081 454.71534,1014.5598 453.92663,1018.3432 C 453.55957,1020.1039 453.10008,1019.4708 452.42393,1016.2726 z M 458.16137,1018.8233 C 458.11977,1016.6858 463.01833,1005.7427 464.01674,1005.7427 C 464.73019,1005.7427 461.30375,1015.5562 459.52402,1018.61 C 458.41133,1020.5192 458.19504,1020.5531 458.16137,1018.8233 z M 573.10748,1009.0333 C 573.59816,1000.5312 574.57573,995.70101 576.57059,991.92231 L 579.35003,986.65731 L 578.63693,991.92231 C 578.24473,994.81801 577.6968,998.37181 577.41929,999.81971 C 577.14181,1001.2675 576.51908,1005.7149 576.03548,1009.7028 C 574.46491,1022.6539 572.34932,1022.1702 573.10748,1009.0333 z M 429.42089,1011.9949 C 426.70211,1006.5429 424.23442,996.52911 425.60969,996.52911 C 426.85713,996.52911 431.60976,1007.6247 432.51615,1012.653 C 433.00548,1015.3677 433.13691,1017.5889 432.80819,1017.5889 C 432.47948,1017.5889 430.95518,1015.0716 429.42089,1011.9949 z M 629.99158,1016.437 C 628.36538,1013.8057 627.11938,999.74651 627.87728,992.58041 C 628.34698,988.13911 630.58068,1000.1104 631.13128,1010.0205 C 631.54928,1017.5428 631.35418,1018.6417 629.99158,1016.437 z M 696.69178,1012.982 C 696.67718,1010.0863 696.93478,1008.7467 697.26418,1010.0052 C 697.59358,1011.2636 697.60558,1013.6328 697.29078,1015.2701 C 696.97588,1016.9074 696.70638,1015.8778 696.69178,1012.982 z M 598.97858,1010.2399 C 598.98968,1008.1284 599.60398,1005.5124 600.34368,1004.4265 C 601.30738,1003.0119 601.43868,1003.9447 600.80698,1007.7171 C 599.71378,1014.2466 598.95208,1015.2975 598.97858,1010.2399 z"
       sodipodi:nodetypes="csssccssccsssssssssssssssccssssssssssssssccssssccsssssssccssssssccsssccsssccssccsscccccssccsssccssccssccssc" />
    <path
       style="fill:#000000"
       d="M 506.54243,756.98874 C 505.77287,756.98874 504.4712,757.8455 503.66743,758.92624 C 502.4581,760.55232 501.38912,760.64369 497.35493,759.39499 C 493.25445,758.12575 491.47765,758.29215 486.16743,760.39499 C 482.69522,761.76996 478.94081,762.89193 477.85493,762.89499 C 476.76903,762.89805 475.07894,764.76893 474.07368,767.05124 C 471.76633,772.28966 467.72437,774.17742 461.76118,772.83249 C 449.16413,771.47054 452.24449,774.77757 447.54243,780.42624 C 446.11346,781.96006 444.81919,784.71773 444.66743,786.55124 C 444.46499,788.9972 443.64612,789.89498 441.57368,789.89499 C 439.72352,789.89499 437.43455,791.82444 434.94868,795.48874 C 432.86146,798.56544 430.70273,801.40252 430.16743,801.80124 C 428.61198,802.95978 428.04615,811.39349 429.35493,813.89499 C 430.23968,815.58603 429.81378,816.77052 427.72993,818.48874 C 422.43662,822.85328 421.39421,824.19492 421.88618,825.80124 C 422.15691,826.6852 422.73121,829.02918 423.16743,831.01999 C 423.47615,832.42886 425.04235,835.4924 426.19868,837.17624 C 422.94741,839.82004 417.96476,841.23942 416.13618,844.70749 C 414.78438,847.67435 414.93444,848.39029 417.26118,850.01999 C 420.62845,852.37852 420.66102,856.69097 417.32368,860.95749 C 415.90802,862.76731 414.74605,866.74379 414.72993,868.77733 C 414.89554,872.39312 415.22515,875.86049 415.42515,877.30011 C 414.69969,882.99589 421.34504,876.96811 421.41743,889.76999 C 423.40363,893.07897 432.59461,893.49248 435.88618,892.45749 C 436.48854,894.04085 437.41075,896.12597 438.79243,899.11374 C 440.29891,902.37142 442.9097,906.13806 444.57368,907.45749 C 448.59541,913.75816 452.88467,912.59679 454.72993,920.48874 C 455.83881,926.64374 461.41484,932.78171 466.97993,933.95749 C 476.69917,935.11036 481.56194,925.02324 479.19868,929.45749 C 479.77713,930.39339 480.05956,932.28927 479.79243,933.67624 C 479.52533,935.06314 479.98944,937.27797 480.82368,938.61374 C 480.97392,948.20189 479.23959,959.29457 478.01118,969.30124 C 477.45882,973.37164 477.48506,977.46742 478.07368,978.39499 C 478.66229,979.32249 479.15634,981.58016 479.16743,983.42624 C 482.60738,994.52649 483.6444,1006.3463 486.32368,1017.8325 C 487.0186,1021.0251 487.61979,1021.3676 492.41743,1021.1762 C 495.35224,1021.0591 498.1957,1021.6868 498.72993,1022.5512 C 500.31339,1025.1133 503.94039,1019.9556 502.72993,1016.8637 C 502.1806,1015.4606 501.69486,1012.21 501.63618,1009.6762 C 501.57746,1007.1424 500.62932,1002.1083 499.51118,998.48874 C 497.28238,991.27354 496.41285,958.97207 498.13618,947.11374 C 499.27522,939.27594 502.4948,936.22273 506.82368,938.92624 C 508.40915,939.91634 509.17473,941.36753 508.69868,942.55124 C 508.26136,943.63864 507.5673,951.79088 507.16743,960.64499 C 506.41269,977.35589 508.11412,995.89177 511.47993,1007.7075 C 512.51102,1011.3271 513.50371,1016.067 513.69868,1018.2387 C 513.9887,1021.4693 514.60867,1022.1534 517.04243,1021.895 C 518.67851,1021.7213 521.19558,1022.7357 522.63618,1024.1762 C 527.85569,1029.3957 530.06973,1026.9617 529.51118,1016.6137 C 529.33065,1013.2691 531.141,1012.6131 532.29243,1015.6137 C 533.54316,1018.8731 535.38509,1017.8468 536.44868,1013.3012 C 537.95401,1006.8676 538.59993,995.21585 537.44868,995.23874 C 536.09326,995.26574 532.37891,997.63671 532.94868,998.11374 C 533.19642,998.32114 532.95948,1000.7347 532.44868,1003.4575 C 531.51397,1008.4399 529.19869,1011.5567 529.19868,1007.8325 C 529.19868,1006.7321 528.09314,1004.7838 526.76118,1003.4887 C 523.67677,1000.4897 520.11384,978.32606 522.47993,976.86374 L 524.07368,943.89499 C 535.04782,944.16725 525.10147,939.05422 538.13618,937.33249 C 542.42889,937.31719 544.57526,938.08412 547.07368,940.58249 C 549.35557,942.86439 551.81276,943.89497 555.07368,943.89499 C 559.8307,944.18594 563.2661,943.24387 567.22993,939.76999 C 570.09259,936.69729 570.82204,936.87868 578.54243,942.51999 C 584.03853,946.53599 585.86177,946.77042 590.63618,944.14499 C 594.09498,942.18631 598.19078,942.62543 601.69868,940.76999 C 603.68368,942.79707 603.79458,946.34981 603.94868,972.61374 C 604.10688,999.55284 604.43608,1003.6132 606.82368,1009.895 C 608.29668,1013.7705 609.47948,1017.9208 609.47998,1019.145 C 609.48068,1021.9547 611.93378,1023.5661 613.63618,1021.8637 C 614.34728,1021.1526 617.71638,1020.8891 621.10498,1021.27 C 626.44178,1021.8701 627.03618,1021.6791 625.63618,1019.9887 C 624.74748,1018.9155 623.68828,1015.736 623.26118,1012.895 C 622.83398,1010.054 621.27408,1003.6646 619.82368,998.70749 C 617.95488,992.32069 617.48138,988.11165 618.13618,984.23874 C 618.64448,981.23264 619.17668,971.93895 619.35498,963.61374 C 619.57678,953.24284 620.15448,948.57577 621.16738,948.80124 C 623.35028,947.03559 626.04208,945.75341 628.29238,943.80124 L 631.19868,941.08249 L 632.01118,961.89499 C 632.44598,973.34149 633.77658,987.44735 634.97998,993.23874 C 636.18318,999.03014 637.76898,1007.3327 638.51118,1011.6762 C 640.50638,1023.3526 640.89238,1024.1762 644.44868,1024.1762 C 646.20968,1024.1762 647.66758,1023.5877 647.66738,1022.8637 C 647.66738,1020.7975 655.06338,1021.3236 656.88618,1023.52 C 659.34568,1026.4835 659.37828,1026.0056 657.22998,1019.895 C 656.14828,1016.8183 654.76258,1011.0329 654.16738,1007.0512 C 653.57228,1003.0696 652.42228,996.85845 651.60498,993.23874 C 648.97058,981.57404 647.23328,948.71266 648.85498,941.23874 C 649.92028,936.32844 649.97638,936.31371 656.76118,938.89499 C 660.32918,940.25239 661.34518,940.26688 661.79238,938.95749 C 662.10168,938.05259 662.94718,937.30126 663.66738,937.30124 C 665.76168,937.30124 674.73178,927.82421 677.16738,923.05124 C 680.02728,914.30606 683.76418,916.87002 680.57368,913.14499 C 680.57368,912.16989 679.35098,909.99011 677.88618,908.30124 C 674.70368,904.63174 675.19548,902.31228 679.04238,902.73874 C 682.51458,903.12364 683.81928,898.83474 682.66738,890.89499 C 682.03428,886.52959 682.58858,883.78117 685.16738,878.26999 C 686.97938,874.39749 688.44868,869.22902 688.44868,866.80124 C 688.44868,861.48496 685.97158,856.20796 683.79238,855.70749 C 678.58018,854.51042 675.20488,853.77643 673.10498,853.39499 C 673.09218,853.01386 673.02288,852.62716 672.94868,852.23874 L 672.29238,848.80124 L 679.38618,849.76999 C 683.28688,850.29833 687.68828,851.02066 689.13618,851.36374 C 696.47538,853.10268 700.06958,852.49602 708.41738,848.17624 C 717.74858,843.34769 718.58698,842.13056 720.04238,831.33249 C 720.78668,825.81105 720.46448,824.21565 718.16738,821.33249 C 708.29708,811.53988 701.97938,798.77606 689.60498,791.20749 C 688.99718,791.20749 688.87808,787.72031 689.32368,783.45749 C 689.98868,777.09519 689.66838,775.08894 687.63618,772.30124 C 683.58038,767.71585 677.08858,766.17892 671.19868,766.45749 C 665.42618,766.87504 663.44878,766.58653 663.44868,765.30124 C 663.44868,764.35468 660.93158,761.73371 657.85498,759.48874 C 652.85768,755.84246 651.57778,755.47359 645.76118,756.14499 C 639.31048,756.63541 635.49578,761.11575 632.79238,766.61374 C 631.47498,770.09076 628.97898,768.72089 625.94868,762.80124 C 623.58438,756.12261 618.65988,755.76221 613.10498,753.76999 C 609.76558,752.29983 605.22588,753.77473 600.94868,757.73874 L 597.19868,761.20749 L 595.07368,758.39499 C 592.02408,754.35196 584.90928,753.62138 578.91743,756.73874 C 575.54305,759.08496 569.6099,757.54357 567.35493,754.33249 C 567.35493,750.79848 555.36527,755.16864 552.51118,759.73874 C 550.53379,762.90506 548.94868,762.94854 548.94868,759.83249 C 548.94868,758.50696 547.45763,756.61977 545.63618,755.64499 C 542.75945,754.1054 541.68668,754.21032 537.41743,756.33249 C 534.7143,757.67614 531.75983,758.61845 530.85493,758.45749 C 530.60731,758.41345 530.38586,758.37919 530.19868,758.36374 C 529.43964,757.57505 528.42055,756.52136 527.07368,755.14499 C 516.80262,746.72699 515.50201,753.28543 506.54243,756.98874 z"
       id="path4875"
       sodipodi:nodetypes="csssssccssssssssccssccccsccccsccsccssssssssssssssssssssscccsccsccssssssssssccccssssssssssssccssssssccccsssccsccsscccccccccsssssccc" />
    <path
       id="path4873"
       style="fill:#f9f9f9"
       d="M 622.07368,764.17624 C 626.22458,766.41161 627.18648,767.70656 626.72998,770.48874 C 626.63748,771.05183 627.47948,771.88135 628.57368,772.30124 C 630.43088,773.01392 635.65778,768.28105 635.76118,765.80124 C 635.87338,763.10903 643.31478,758.45408 647.29238,758.58249 C 652.69678,758.75697 662.48758,767.61004 661.19868,771.14499 C 660.43548,773.23804 660.63118,773.21392 663.16738,770.98874 C 665.84808,768.63691 671.19828,768.45113 679.76118,770.42624 C 687.05618,773.6097 687.95128,782.46112 685.63618,789.01999 C 684.40978,791.88088 674.91408,785.13176 673.97998,781.92624 C 673.97998,780.24259 673.33948,779.66651 672.01118,780.17624 C 670.80248,780.64007 670.04238,782.64598 670.04238,785.33249 C 669.06368,791.38328 666.11948,800.63612 660.04238,803.05124 C 656.77098,803.05124 657.27998,806.43787 661.19868,810.58249 C 664.86128,814.45624 665.05738,815.04979 663.22998,817.17624 C 660.96028,820.60471 659.39198,823.8476 655.94868,826.30124 C 650.06788,830.06683 648.06428,832.33979 650.01118,832.98874 C 652.80108,834.65776 654.81858,836.65987 658.10498,837.26999 C 660.98518,837.26999 661.56898,838.53677 659.66738,840.61374 C 659.03788,841.30147 658.22168,844.2493 657.82368,847.14499 C 657.21828,851.55139 657.33018,851.90488 658.51118,849.42624 C 659.28738,847.7974 660.59308,846.48874 661.44868,846.48874 C 663.64978,846.48874 670.04238,853.91542 670.04238,856.48874 C 670.04238,858.14972 670.43858,858.32572 671.82368,857.17624 C 672.45068,856.65583 672.85638,855.7088 673.01118,854.61374 C 676.62678,856.19142 682.78938,858.6036 684.54238,860.33249 C 688.25378,863.9926 686.91048,865.01652 683.10498,872.51999 C 681.00698,876.65637 679.27028,880.77131 679.26118,881.67624 C 674.85758,885.52877 680.79258,886.36107 681.85498,892.80124 C 681.83778,893.75375 679.51378,896.21935 676.69868,898.30124 C 671.08128,904.04907 673.01318,905.07862 674.13618,906.61374 C 675.53258,909.09984 677.39958,911.97387 678.29238,912.98874 C 678.92268,913.70518 679.36608,914.17463 679.69868,914.45749 C 679.15548,915.42014 678.29258,917.13628 677.01118,919.98874 C 676.39878,921.35201 672.28198,924.0436 669.38618,927.39499 C 662.99428,934.79289 659.97008,936.6809 657.66738,934.76999 C 654.28548,931.96319 649.87078,932.37774 646.97998,935.73874 L 644.16738,938.98874 L 640.63618,935.92624 C 636.43388,932.27234 636.21098,929.58059 639.76118,925.76999 C 643.21278,922.06509 643.09928,921.09339 639.44868,923.14499 C 635.20998,925.52709 631.85478,929.45127 631.85498,932.05124 C 631.85498,933.28674 629.83918,936.2785 627.35498,938.70749 C 614.80598,948.82385 608.93768,939.37023 600.01118,932.33249 C 597.96838,930.58059 597.79828,930.74327 598.04238,934.17624 C 598.17898,936.0934 599.33258,938.53925 600.69868,939.86374 C 598.33958,939.53213 593.25978,940.31182 592.38618,941.45749 C 590.95278,943.33729 580.66927,940.17811 577.32368,936.83249 C 575.40226,934.91109 573.48414,933.36373 573.04243,933.36374 C 568.62019,937.28514 560.1953,942.4706 556.7384,941.12993 C 544.18004,938.29545 549.84783,934.55584 545.97993,932.05124 C 545.43699,932.04354 544.9799,931.49332 544.97993,930.83249 C 544.97993,930.17169 546.63771,929.8926 548.63618,930.20749 C 561.18257,928.11377 557.09474,918.72012 558.82368,917.05124 C 560.50461,917.24674 564.70145,912.46953 566.16743,908.67624 C 567.88426,904.23384 561.35158,893.86752 556.85493,893.89499 C 554.58118,893.90887 554.09934,894.23219 555.29243,894.98874 C 557.84658,896.60838 560.79241,902.90121 560.79243,906.70749 C 560.79243,910.50909 557.50841,913.49007 553.29243,913.55124 C 549.32417,913.60884 548.02344,916.23286 551.51118,917.14499 C 556.69601,921.15045 550.85866,925.3819 545.54243,921.33249 C 543.74293,918.42079 542.35494,920.72611 542.35493,926.61374 C 542.35493,931.26834 541.7949,933.28715 540.29243,933.86374 C 537.65472,934.87584 531.82365,933.45415 531.82368,931.80124 C 531.82368,931.11314 531.29215,930.89585 530.63618,931.30124 C 530.18651,946.58386 509.11956,942.82366 508.72993,930.92624 C 510.28355,926.03124 506.74453,926.53658 501.32368,931.95749 C 494.11727,939.16389 490.95085,939.83435 486.57368,935.11374 C 484.68107,933.07264 483.13616,930.1135 483.13618,928.51999 C 483.13618,925.28769 480.65512,923.0757 479.35493,925.14499 C 468.78633,935.22568 458.47186,925.52694 456.54243,913.89499 C 456.24068,910.26609 455.46753,908.88541 453.54243,908.51999 C 452.11783,908.24949 449.01218,906.55102 446.63618,904.73874 C 439.29871,898.59871 451.9532,887.63629 441.26118,877.20749 C 436.52783,861.71606 433.96045,860.17386 442.16743,847.42624 C 443.92363,844.69838 444.98069,842.08323 444.51118,841.61374 C 440.15038,841.52078 434.54632,853.82171 433.01118,857.95749 C 432.32843,867.49742 438.2918,874.5975 442.22993,882.64499 C 445.09371,890.41834 436.78698,890.80325 435.32368,890.80124 C 432.9111,890.61099 428.30387,890.67008 426.82368,890.64499 C 423.50628,890.58881 423.23954,890.16195 423.19868,884.86374 C 423.16419,880.3891 422.46749,878.63866 419.94868,876.73874 C 418.72809,875.81804 417.43818,875.16758 416.57368,874.95749 C 417.00704,872.662 417.42574,869.03286 417.79243,866.11374 C 418.16787,863.12495 419.18581,862.19417 420.60493,862.73874 C 422.09787,863.31164 422.57367,862.53335 422.57368,859.51999 C 422.57368,857.32334 421.95257,854.36614 421.19868,852.95749 C 417.90973,844.99406 427.24173,843.02832 429.16743,837.73874 C 427.65857,836.02596 427.1057,833.53711 425.13618,831.14499 C 422.67556,828.68437 425.24865,822.63897 429.35493,821.20749 C 433.28821,819.83634 433.50373,819.17438 433.13618,809.92624 C 432.97617,805.90043 433.8996,802.56631 436.41743,798.26999 C 439.66471,792.72891 440.29226,792.28837 444.41743,792.76999 C 448.76667,793.27772 448.9174,793.162 448.91743,788.61374 C 448.91743,784.93538 449.90467,783.01227 453.57368,779.64499 C 458.71663,774.92496 463.64379,774.35824 470.44868,777.70749 C 475.05293,779.9736 476.2527,778.92794 476.79243,772.11374 C 477.17864,767.23781 477.51825,766.80824 481.47993,766.42624 C 483.95453,766.18765 485.76118,765.28238 485.76118,764.26999 C 485.76118,761.49767 489.42192,760.80659 495.72993,762.39499 C 499.95429,763.4587 501.54244,764.5315 501.54243,766.26999 C 501.54243,769.41022 504.17535,771.03286 504.22993,767.92624 C 504.33473,761.96558 513.19627,756.14258 522.97993,756.76999 C 525.12012,756.90724 527.52758,758.07379 529.32368,759.05124 C 529.34057,759.67807 529.71654,760.79338 530.47993,762.80124 C 532.21411,767.36249 533.91146,767.05424 536.44868,761.70749 C 540.29735,753.59704 547.63617,754.96824 547.63618,763.80124 C 547.63618,766.2101 548.31853,767.48872 549.60493,767.48874 C 550.30806,764.79364 557.48663,760.75419 559.51118,758.89499 L 563.51118,755.08249 L 567.54243,759.36374 C 570.89238,761.97784 581.03713,767.61824 582.38618,762.89499 C 583.62294,757.96739 587.57743,758.687 589.57368,764.20749 C 591.19088,768.67979 595.01118,770.6599 595.01118,767.01999 C 595.01118,766.02742 597.03208,763.81243 599.51118,762.11374 C 614.97718,748.85521 608.32758,755.79375 622.07368,764.17624 z M 654.51118,778.01999 C 653.89268,778.03413 652.38748,779.24442 650.88618,780.98874 C 648.19028,784.12092 646.72748,784.63727 640.13618,784.76999 C 631.36858,784.9465 628.90218,786.01743 623.04238,792.05124 C 615.63738,797.94237 615.71428,808.77323 610.04238,815.45749 C 607.69438,817.80561 608.65278,818.45307 615.41738,819.11374 C 624.98538,818.81935 643.92238,819.02391 648.97998,808.20749 C 651.57538,804.02847 653.99268,798.75176 658.19868,796.01999 C 662.96788,793.2028 663.26988,791.20749 658.94868,791.20749 C 653.74178,791.20749 651.60498,789.7835 651.60498,786.36374 C 651.81058,782.88657 656.59518,782.25957 654.51118,778.01999 z"
       sodipodi:nodetypes="csssssscccsccsccccsssssscssccccscssscccsssccscsscccsccsssssccsssccsssccsccsccccssscssscccsssssssssssssscssscccccsscccsscccccscc" />
    <path
       style="fill:#000000"
       d="M 576.93731,85.190351 C 520.58596,85.840183 462.09712,128.16576 437.24981,160.1591 C 433.69953,161.21112 429.73434,160.85896 425.12481,158.25285 C 414.17221,150.12446 412.90057,162.95835 415.93731,170.94035 C 424.8905,180.42518 416.07175,187.1393 406.06231,190.7216 C 395.70421,182.1703 383.16652,188.42092 380.81231,201.4091 C 379.20368,216.86875 396.66241,224.05636 406.40606,232.7216 C 416.00447,227.45614 416.84956,237.35643 421.43731,243.6591 C 431.94186,254.70693 456.96897,271.06325 465.03106,274.62785 C 468.18948,280.77925 466.94847,290.68087 465.62481,297.4091 C 452.92716,314.28293 478.15396,322.3238 484.90606,305.5966 C 490.79463,287.14174 492.29235,311.39139 493.56231,318.0341 C 506.4535,322.09462 515.73213,305.76618 515.53106,294.50285 C 525.68968,293.68602 537.43705,300.9313 548.24981,294.81535 C 558.38947,295.10595 588.82851,286.61971 576.09356,305.4091 C 566.78712,321.52482 591.15921,319.73719 594.71851,307.7841 C 605.84061,294.06746 598.08381,318.94776 602.37481,321.4091 C 604.85571,321.85091 607.42011,322.35763 609.93731,321.7216 C 621.91031,315.94004 623.91331,301.42581 632.15611,291.7216 C 661.01531,247.11457 656.28101,279.64794 681.34351,226.50285 C 683.66411,206.96984 707.72751,213.59374 715.43731,198.06535 C 723.76111,185.4738 717.70221,161.27167 698.96851,167.31535 C 680.83721,167.0341 684.66561,194.80499 700.24981,194.31535 C 692.86631,198.90707 683.45781,195.17418 683.31231,184.9716 C 680.08861,168.45123 674.27091,152.38225 666.56231,137.4091 C 645.84441,105.77275 615.61511,84.91718 576.93731,85.190351 z M 701.15611,176.9716 C 701.91571,176.91394 709.85981,177.21581 708.97921,187.29609 C 703.95481,182.30905 693.30441,181.52512 701.15611,176.9716 z"
       id="path4798"
       sodipodi:nodetypes="ccccccccccccccccccccccccccccc" />
    <path
       id="path4807"
       style="fill:#f4d7d7"
       d="M 579.93731,91.596601 C 615.99461,91.648181 649.65511,108.20145 669.59351,152.56535 C 674.87731,165.5676 678.02141,179.38433 680.53111,192.87785 C 684.69381,207.16619 708.90881,201.0536 711.28111,186.9716 C 713.76241,179.90059 704.67981,171.78298 699.43731,175.3466 C 687.42121,185.73009 708.86561,182.02294 702.93731,188.8466 L 701.03111,190.12785 L 698.87481,190.6591 C 667.05301,171.39215 729.19811,158.63595 713.84351,193.3466 C 707.01201,204.96037 693.33411,209.82841 680.56231,210.56535 C 675.02651,224.89006 673.72921,241.98979 660.65611,253.0341 C 653.57131,263.16139 639.47101,266.88679 635.93731,279.0341 C 629.63091,287.87236 624.94291,299.10897 617.93731,307.3466 C 600.98191,316.9205 608.24071,290.29854 594.56231,288.56535 C 573.86387,291.03578 611.01671,287.31579 593.65611,304.69035 C 587.15941,309.1882 578.11251,304.3609 581.56231,295.94035 C 582.52293,294.53888 582.03634,292.14998 581.49981,289.94035 C 567.17427,291.28777 552.78421,292.04241 538.40606,291.62785 C 527.46484,291.47852 504.03762,283.31025 507.65606,302.2841 C 506.35761,312.77409 491.03133,301.15716 491.53106,293.37785 C 487.59699,287.01628 482.5904,281.82937 476.99981,277.2841 C 487.24972,291.51103 487.26252,293.21582 483.06231,300.4716 C 476.06272,304.19482 468.21132,303.9186 470.53106,293.56535 C 468.82749,288.2487 469.08233,281.17286 468.03106,273.5341 C 452.86532,262.93209 437.78169,254.13247 426.03106,240.0341 C 411.9237,227.81848 436.87762,230.09336 443.65606,224.56535 C 441.93796,219.24043 426.45129,230.33221 427.24981,217.06535 C 428.07801,202.15277 418.69408,214.20746 421.03106,222.44035 C 415.54716,234.55757 398.84944,224.46772 392.81231,217.12785 C 386.43485,211.50251 376.41471,197.6886 392.37481,192.3466 C 395.68066,197.4398 394.10192,202.61783 392.12481,208.12785 C 394.22704,203.52038 397.85807,198.41019 395.90606,193.6591 C 400.32191,194.1733 411.36927,193.90658 417.34356,188.81535 C 426.17496,179.16068 429.27258,197.28449 435.53106,195.19035 C 436.41568,185.24133 419.31545,174.08916 418.65606,161.0341 C 423.7776,164.13138 430.464,164.54559 436.31231,167.69035 C 442.40582,173.6785 452.11517,183.31513 448.40606,194.1591 C 454.48885,201.91595 451.91729,182.2445 452.40606,176.94035 C 455.21661,168.96884 441.86545,166.55685 441.81231,161.50285 C 469.43466,126.64889 527.23818,91.521215 579.93731,91.596601 z M 413.37481,194.7216 C 411.74948,194.74439 410.47175,196.20172 412.15606,200.37785 C 419.74334,198.60488 416.0837,194.68361 413.37481,194.7216 z M 654.34351,290.56535 C 654.08801,291.63042 653.91001,292.9008 653.74981,294.25285 C 654.06601,292.95746 654.27201,291.71937 654.34351,290.56535 z" />
    <path
       id="path4778"
       style="fill:#008000"
       d="M 423.59356,286.25285 C 422.62869,286.68272 421.49838,299.2892 421.96856,302.94035 C 421.97964,306.9143 421.85266,310.92161 422.59356,314.8466 C 427.33407,313.18215 423.72905,298.06431 424.53106,292.06535 C 424.32443,288.03694 424.01498,286.38275 423.68731,286.25285 C 423.65659,286.24067 423.62468,286.23898 423.59356,286.25285 z M 444.18731,287.0341 C 443.56607,289.68062 443.40349,304.38928 445.12481,310.2216 C 451.07643,316.30722 444.44928,291.06459 444.18731,287.0341 z M 436.74981,294.06535 C 435.62107,294.00638 432.87643,301.00871 433.12481,306.31535 L 432.99981,308.50285 C 433.78936,321.94205 437.73889,306.52027 436.56231,301.2216 C 437.50698,296.05163 437.34105,294.09624 436.74981,294.06535 z M 653.71851,294.3466 C 651.47901,303.40201 644.30821,315.16368 645.59351,319.5966 C 653.02211,317.56664 652.65631,303.42651 653.71851,294.3466 z M 405.74981,294.37785 C 404.0642,294.86736 408.97712,307.22766 411.62481,310.1591 C 416.01192,314.7498 410.45744,300.60151 409.96856,298.62785 C 407.61676,295.35957 406.31168,294.21468 405.74981,294.37785 z M 638.03111,296.7841 C 636.50361,297.03665 635.12371,306.02847 635.78111,310.3466 C 635.71251,312.46564 635.65701,314.6012 635.65611,316.7216 C 637.54101,333.41247 642.49151,309.37545 640.03111,303.12785 C 639.43801,298.36195 638.72511,296.6693 638.03111,296.7841 z M 457.56231,299.7841 C 457.19401,299.72617 456.66917,300.8152 456.03106,304.06535 C 458.41815,310.47176 458.66721,299.9579 457.56231,299.7841 z M 557.62481,300.4716 C 555.30685,300.39515 556.25771,317.51209 561.21856,321.9716 C 568.64453,326.01523 560.9795,311.85457 560.99981,307.37785 C 559.52719,302.42589 558.39746,300.49708 557.62481,300.4716 z M 541.78106,301.69035 C 540.49172,302.19797 536.58586,316.27303 533.68731,319.7216 C 537.96369,324.57797 541.43868,311.81021 541.87481,308.75285 C 542.38647,303.34456 542.28559,301.49172 541.78106,301.69035 z M 659.90611,303.4091 C 658.91921,303.34722 659.49281,317.33688 662.15611,320.69035 C 665.22101,325.5098 660.55281,311.08904 661.40611,309.06535 C 660.75591,305.00599 660.23491,303.42973 659.90611,303.4091 z M 519.09356,303.56535 C 517.29315,304.13094 516.1479,313.54156 519.31231,317.31535 C 524.92586,327.91568 524.09725,312.29415 521.62481,309.62785 C 520.86768,304.87922 519.91193,303.30826 519.09356,303.56535 z M 453.09356,303.81535 C 452.65285,303.90046 452.25807,305.3919 452.09356,309.2216 L 452.18731,312.2841 C 456.92144,320.9635 454.66751,303.51139 453.09356,303.81535 z M 396.99981,305.44035 C 395.47868,305.53175 394.66266,308.87072 396.84356,313.87785 C 398.42214,320.61149 402.9143,317.71423 400.71856,311.87785 C 399.77898,307.24963 398.18291,305.36926 396.99981,305.44035 z M 530.24981,305.62785 C 528.53535,305.88873 524.60659,317.51886 526.90606,321.69035 C 530.50067,322.92769 530.0519,313.54501 530.71856,311.6591 C 531.23154,307.14744 530.92069,305.52577 530.24981,305.62785 z M 670.84351,306.31535 C 669.47781,306.69965 665.31891,318.00817 666.96851,322.1591 C 670.30881,326.45922 668.84111,315.30022 670.31231,313.5341 C 671.41391,308.45893 671.44401,306.45234 670.96851,306.31535 C 670.93061,306.30441 670.88781,306.30295 670.84351,306.31535 z M 566.99981,308.4716 C 566.41397,308.58531 565.70701,310.172 565.40606,314.12785 L 565.71856,315.2841 L 566.59356,315.75285 C 568.63065,312.13647 567.97621,308.28208 566.99981,308.4716 z M 546.31231,310.9091 C 545.50057,311.07885 545.7185,313.93419 547.84356,318.69035 C 550.27414,326.00356 550.95626,322.40711 550.31231,317.31535 C 548.53594,312.71997 547.02855,310.75932 546.31231,310.9091 z M 628.59351,311.56535 C 627.72271,311.60799 627.73971,315.42426 629.43731,320.0341 C 631.38911,329.96656 633.91641,322.53185 631.37481,317.75285 C 630.20121,313.29652 629.18971,311.53618 628.59351,311.56535 z M 679.46851,315.3466 C 678.76991,315.42339 677.89291,316.63836 677.15611,319.87785 L 677.49981,321.62785 C 682.03101,322.32383 681.25431,315.15037 679.46851,315.3466 z" />
    <path
       id="path5013"
       style="fill:#000000"
       d="M -82.044168,623.63573 C -82.587118,623.95542 -83.044158,626.24128 -83.044168,628.69823 C -83.044168,636.22911 -85.192418,639.26869 -90.700418,639.57323 C -98.363168,637.37246 -102.6522,646.28363 -109.51292,643.76073 C -116.03591,641.85574 -114.05929,626.31416 -119.26292,631.10448 C -124.62411,633.95905 -123.30665,637.81879 -125.07542,643.16698 C -126.92835,647.77578 -123.03058,652.97288 -117.70042,653.01073 C -115.62901,653.02543 -115.03351,653.67196 -115.48167,655.38573 C -115.98431,657.30788 -117.50432,657.70364 -123.79417,657.66698 C -130.95388,657.62523 -131.75173,657.937 -135.51292,662.22948 C -144.04295,671.96434 -151.03422,693.41488 -145.88792,694.04198 C -140.86329,693.25169 -130.78353,694.27876 -126.79417,691.47948 C -121.54406,683.12542 -114.17321,670.53031 -113.32542,690.16698 C -113.33044,696.09379 -114.07825,701.17926 -115.29417,703.51073 C -117.00531,705.89658 -116.58126,709.11547 -118.48167,711.16698 C -124.9705,732.37678 -117.032,743.16683 -104.48167,747.38573 C -105.71724,764.77777 -103.22182,781.93236 -101.82542,799.19823 C -101.32387,805.30263 -100.71711,812.03688 -100.04417,814.13573 C -96.074698,871.31176 -70.098868,900.82565 -51.419168,909.16698 C -50.116628,912.90342 -50.261148,914.01866 -54.075418,931.417 C -55.509688,944.8279 -62.478698,956.4749 -66.481668,969.042 C -66.687098,970.7409 -74.557948,985.4129 -75.481668,985.8232 C -76.024608,986.0645 -76.450418,987.993 -76.450418,990.1045 C -76.227078,993.8215 -78.388198,995.6085 -74.325418,994.6358 C -70.487488,993.9157 -69.089048,994.2845 -67.044168,996.4795 C -64.379398,999.3398 -60.669168,1000.1401 -60.669168,997.8545 C -60.669168,996.0574 -54.052668,985.9329 -51.137918,983.2608 C -49.860958,982.09 -48.827728,980.5877 -48.825418,979.9482 C -48.823108,979.3092 -46.435278,975.2281 -43.544168,970.8858 C -40.653058,966.5422 -38.296468,962.4972 -38.294168,961.8858 C -36.157188,958.6731 -30.759518,942.2792 -27.794168,945.1982 C -25.930368,952.4883 -31.703838,958.8109 -31.450418,965.917 C -33.603578,971.2282 -38.382938,984.3677 -40.200418,989.9795 C -41.489938,993.9611 -43.035478,998.2144 -43.637918,999.417 C -45.281008,1002.6967 -41.611248,1003.4607 -38.856668,1000.417 C -35.726298,996.958 -33.199138,997.225 -31.700418,1001.167 C -30.296458,1004.8597 -27.495278,1005.4332 -24.887918,1002.542 C -20.696778,997.8945 -19.242758,995.9673 -19.856668,995.8858 C -20.218628,995.8373 -18.624168,992.2625 -16.325418,987.9482 C -14.026648,983.6354 -12.239768,979.8116 -12.356668,979.4482 C -4.7814079,961.6095 5.0490421,943.8861 9.5808321,924.6358 C 11.651362,925.4123 15.052342,925.5117 17.487082,924.9795 C 50.658262,923.8843 88.814612,915.57039 120.48708,906.01073 C 126.45946,902.92546 130.06476,901.94648 137.76833,901.35448 C 145.29806,900.77585 145.98708,900.94187 145.98708,903.32323 C 145.98708,906.13239 148.86021,909.69824 151.14333,909.69823 C 153.27555,909.69823 152.88861,911.60069 149.33083,918.29201 C 145.8887,924.7658 146.30731,927.3735 151.33083,930.5108 C 153.27418,931.723 154.68635,930.9712 159.83083,926.042 C 166.33554,919.80961 167.90947,919.60191 173.33083,924.1358 C 175.99219,926.3599 176.28313,927.6363 175.95583,935.4795 L 175.61208,944.3232 L 179.42458,944.5108 C 182.9708,944.6746 189.42458,939.8287 189.42458,937.0108 C 189.42458,936.4591 189.91539,936.0107 190.51833,936.0108 C 192.71294,944.876 184.43296,959.5419 179.64333,966.9482 C 175.31643,972.9845 167.83318,988.5756 168.79958,989.542 C 170.12131,990.8638 177.58083,991.4252 177.58083,990.1982 C 177.58083,988.051 181.4881,989.1496 182.23708,991.5108 C 183.37816,995.1059 186.14306,994.4647 189.98708,989.667 C 191.87216,987.3143 193.91683,984.7653 194.51833,984.0108 C 197.11903,980.7464 207.86951,958.4501 209.89333,952.1358 C 211.11141,948.3351 212.62773,945.2295 213.26833,945.2295 C 213.90894,945.2295 214.42458,942.9227 214.42458,940.1045 C 214.42458,933.978 217.87078,931.5348 219.17458,936.7295 C 220.74557,942.9889 212.72068,973.9459 208.92458,976.292 C 208.32949,976.6598 207.86208,978.1369 207.86208,979.542 C 205.62041,983.1305 203.67059,987.5728 201.08083,991.5108 C 199.72795,993.4323 198.64333,995.6563 198.64333,996.4482 C 198.64333,998.2188 206.06342,998.3818 207.14333,996.6358 C 208.28992,994.7806 211.4372,996.3785 212.17458,999.1982 C 212.5425,1000.6052 213.78967,1001.4861 215.11208,1001.292 C 217.65634,1000.9186 223.64333,995.6626 223.64333,993.792 C 223.64333,993.1378 225.23983,990.7811 227.20583,988.5732 C 238.58955,974.2299 243.31152,956.2993 250.48708,939.7608 C 253.3338,933.2713 253.26462,929.5383 250.29958,930.2295 C 249.00426,930.5315 246.11142,929.0344 243.70583,926.8232 C 232.08179,914.00825 253.88282,899.0608 263.98708,892.57323 C 276.6944,881.79868 278.54126,863.02657 280.11208,847.44823 C 306.63765,820.74265 336.47053,766.8044 291.89333,710.94823 C 284.71069,702.88759 289.29121,691.63472 282.48708,682.91698 C 277.14365,676.39603 272.98731,674.91273 265.01833,676.76073 C 255.79356,678.89997 254.43249,678.45984 250.79958,672.26073 C 248.92897,669.06879 246.08861,666.14402 244.42458,665.69823 C 242.09042,665.0729 237.7742,664.85022 233.76833,664.94823 C 229.76245,665.04624 226.05336,665.48895 224.95583,666.19823 C 222.30663,670.20116 222.30512,673.849 211.95583,672.82323 C 139.73254,667.36619 67.116332,674.11715 -5.6691679,676.04198 C -23.985198,679.96017 -12.997708,675.04833 -61.294168,676.22948 C -61.578658,675.40206 -61.876578,674.49886 -62.200418,673.41698 C -65.306568,663.0398 -65.310358,661.77945 -62.075418,663.51073 C -54.901448,664.29809 -34.831558,667.68472 -31.700418,656.72948 C -31.700418,654.79004 -41.512208,645.37671 -46.262918,642.76073 C -52.893458,639.10964 -63.298878,638.02498 -66.981668,640.60448 C -69.699028,642.5078 -70.501198,642.16151 -69.950418,639.29198 C -71.554208,631.49895 -74.393498,625.59064 -82.044168,623.63573 z M 288.56942,734.91984 C 298.99929,760.62673 298.3092,786.13768 287.40349,811.7869 C 285.85575,811.7869 287.3613,798.02134 289.30974,794.38065 L 288.56942,734.91984 z"
       sodipodi:nodetypes="csccccsssscccccccccccsccssssscccsssssssccccssssssscccsccssssssssssccsssssccscccccssssccccsccsscccccc" />
    <path
       id="path4999"
       style="fill:#552200"
       d="M -42.471508,652.1619 C -35.852708,658.33334 -35.813208,658.42152 -38.502758,660.5994 C -44.987548,665.06518 -57.129798,664.66973 -62.909008,659.0994 C -64.982478,656.93517 -66.262858,654.76575 -65.752758,654.25565 C -65.242658,653.74556 -63.592528,651.01233 -58.576158,650.97193 L -46.596508,653.1619 L -51.471508,650.2244 C -54.155048,648.59927 -58.321148,647.25935 -60.721508,647.25565 C -65.785908,647.24783 -70.591928,649.44275 -69.471508,651.25565 C -69.046548,651.94326 -69.576618,652.50566 -70.627758,652.50565 C -72.169498,652.50565 -74.127748,649.95011 -74.127758,647.94315 C -59.386698,637.62548 -54.992658,641.89991 -42.471508,652.1619 z M -122.25276,661.75565 C -120.22227,661.8016 -118.87775,662.428 -118.87776,663.69315 C -118.87776,664.9089 -120.11809,665.69315 -122.09651,665.69315 C -126.85144,666.50641 -131.8944,669.45528 -135.00276,673.19315 C -141.53187,681.79872 -138.57656,684.80527 -131.34651,676.9119 C -129.04503,674.39927 -125.65243,671.76666 -123.81526,671.06815 C -120.74769,669.90186 -120.4132,670.10744 -119.87776,673.75565 C -119.43329,676.78391 -119.99815,678.19434 -122.19026,679.63065 C -125.50837,689.16302 -136.93939,695.24208 -147.84651,690.63065 C -144.53197,682.79246 -138.60301,666.13516 -131.90479,661.5885 C -128.32906,659.7643 -124.8634,661.69657 -122.25276,661.75565 z M 203.62224,754.9119 C 206.81436,754.96058 209.39611,756.36607 210.18474,760.31815 C 213.591,772.80661 202.38561,779.75086 190.09099,777.2244 C 185.71339,773.90018 184.12556,762.20989 187.80974,760.44315 C 191.26056,758.51598 198.30205,754.83076 203.62224,754.9119 z M 144.02849,675.4119 C 165.20209,675.44957 186.50293,675.84269 208.05974,676.50565 C 197.42739,698.62496 186.98249,695.06522 170.90349,708.94315 C 174.77159,734.40758 155.74504,771.93339 135.15349,775.75565 C 102.61613,781.64674 70.275012,771.0569 60.903492,734.2869 C 31.401212,727.30738 11.949532,734.74272 -1.3152579,696.3494 C -5.0943979,682.33343 -5.0712479,682.2762 4.6222421,681.3494 C 51.465362,676.97907 97.446576,675.32904 144.02849,675.4119 z M 272.71599,679.1619 L 278.40349,685.06815 C 289.87474,690.02211 279.00508,703.59269 285.21599,710.88065 C 294.58328,719.68375 298.76408,731.82448 303.65349,743.3494 C 314.33608,767.5905 309.18641,795.48521 297.87224,818.4744 C 293.3975,828.13407 286.4017,835.01349 279.15349,842.4119 C 277.68627,842.33842 273.64304,845.50344 271.87224,846.6619 C 268.78001,847.68264 254.27543,859.11466 253.62224,856.44315 C 250.95045,855.21182 248.82414,852.95927 246.15349,851.8494 C 269.85973,845.10293 283.08204,825.58237 289.62224,814.81815 C 299.28427,793.78296 304.45051,762.4391 292.74724,740.7244 C 289.51725,735.30795 288.35771,725.96666 287.37224,728.63065 C 286.78747,730.21145 287.50766,744.95631 287.93474,750.2244 L 285.21599,783.94315 L 276.96599,783.50565 C 259.46317,783.15147 243.21469,767.15154 258.21599,751.2244 C 261.28798,747.02318 259.5645,740.50329 261.49724,735.44315 C 263.14764,732.35933 259.93539,730.16191 253.74724,730.1619 C 252.04525,730.1619 248.75012,728.18593 246.30974,726.75565 C 245.81708,720.71261 240.74553,716.27223 240.46599,710.38065 C 241.3651,702.33833 247.02683,695.96254 249.68474,688.44315 C 249.68474,687.89523 252.10123,685.28377 252.80974,682.5994 C 255.95079,685.29815 255.86832,684.61118 256.49724,682.7244 C 263.53164,679.36604 267.84264,679.63887 272.71599,679.1619 z M 33.997242,756.2244 C 34.076412,756.4126 34.399392,756.50565 34.965992,756.50565 C 42.167822,758.65264 47.882782,764.44395 55.215992,766.63065 C 59.260202,767.43949 60.340092,768.95644 63.497242,778.25565 C 68.695892,801.25647 43.939302,818.67893 24.153492,792.9119 C 2.8520421,794.5493 5.9770821,783.13948 8.2784921,772.7244 C 9.6353121,760.90875 23.866452,757.13231 33.997242,756.2244 z M 158.27849,784.50565 C 162.28622,784.55156 166.10563,787.38152 170.24724,785.44315 C 171.3719,789.22987 172.94792,793.07791 172.43474,797.0994 C 171.90509,799.12478 172.79208,799.69166 177.59099,800.3494 C 188.25466,800.3734 194.0274,800.75306 198.77849,811.9119 C 202.83341,829.61083 179.13589,853.05882 162.80974,830.6619 C 162.80974,827.73801 160.23086,827.39851 157.46599,829.9744 C 142.85042,840.06776 139.88711,828.33765 134.15349,816.7244 C 133.89306,816.1801 135.04358,815.20763 136.71599,814.56815 C 141.6756,812.67169 145.0316,808.23097 143.18474,806.00565 C 148.61816,789.04123 153.16315,784.91952 157.46599,784.5369 C 157.73492,784.51299 158.01131,784.50259 158.27849,784.50565 z M -98.159008,790.2869 C -90.027688,790.38759 -84.503208,794.43153 -76.346508,797.7869 C -68.516248,801.17367 -63.622658,807.76613 -64.159008,816.25565 L -65.909008,826.9744 C -46.244128,833.04489 -28.794508,837.19061 -28.065258,858.50565 C -30.279468,868.94178 -37.304008,903.67281 -51.127758,905.69315 C -84.748388,897.72372 -95.344258,832.62605 -99.752758,805.19315 C -100.28339,801.70094 -101.04004,796.18833 -101.81526,790.50565 C -100.53179,790.34593 -99.320628,790.27252 -98.159008,790.2869 z"
       sodipodi:nodetypes="cccscccssscccsccsssccccccccccccccccccccccccccccscccccscccccccccccccccccccccscscccccccccc" />
    <path
       id="path4985"
       style="fill:#ffe6d5"
       d="M -63.377758,687.6619 C -52.604508,687.48216 -43.559638,695.67381 -39.346508,706.38065 C -36.797348,715.18679 -36.774098,719.531 -39.284008,722.8494 C -63.212878,746.0608 -112.95367,762.43001 -117.65901,724.50565 C -121.13028,712.27488 -109.76092,701.40227 -99.690258,695.94315 C -88.040538,689.99006 -76.145148,688.31261 -63.377758,687.6619 z M -68.940258,694.81815 C -71.954508,694.99256 -75.440258,697.43116 -75.440258,699.88065 C -75.440258,702.9877 -73.445668,703.43254 -72.346508,700.56815 C -65.295368,693.10491 -69.586158,703.84776 -69.315258,705.50565 C -68.936598,706.11831 -67.774208,705.9159 -66.752758,705.06815 C -64.116118,701.91039 -63.868088,695.03336 -68.940258,694.81815 z M -55.856678,700.1619 C -53.266368,702.75221 -55.475118,711.21142 -59.002758,718.6619 C -67.301448,736.06665 -90.847358,733.9661 -100.65901,718.81815 C -101.40301,716.82576 -104.10175,716.25121 -101.62776,710.75565 C -101.8176,708.69837 -105.7215,708.5801 -105.72151,710.63065 C -102.36498,715.22448 -114.32238,715.4488 -111.01366,715.94737 C -109.83123,715.97039 -105.64397,716.73879 -105.19026,718.00565 C -91.165278,744.55831 -58.738638,743.28675 -52.659008,708.5369 C -54.310128,698.99678 -47.181708,697.43723 -54.034008,696.31815 C -56.619688,695.51977 -57.435368,697.61207 -55.856678,700.1619 z M -95.940258,701.0369 C -98.225108,703.10251 -97.245448,707.60725 -94.002758,710.00565 C -92.294258,711.26933 -90.130708,710.62685 -91.440258,709.3494 C -96.095938,704.80786 -92.883378,696.26389 -87.502758,704.00565 C -83.400198,695.34267 -91.182278,696.7766 -95.940258,701.0369 z M 179.37224,893.25565 C 190.37073,892.57298 213.44778,909.46119 213.46599,917.0994 C 213.07125,918.34314 213.3972,921.0595 214.18474,923.1306 C 215.19065,925.7777 215.19836,927.0219 214.21599,927.3494 C 213.4469,927.6057 212.80151,928.8304 212.77849,930.0369 C 212.75546,931.2435 211.8726,933.3817 210.80974,934.7869 C 209.74687,936.1922 208.87224,938.3639 208.87224,939.6306 C 208.87224,945.0276 206.61993,942.6633 205.05974,935.6306 L 203.37224,928.0056 L 196.09099,927.7556 C 188.37679,927.5048 185.18474,929.0465 185.18474,932.9744 C 185.18474,937.125 182.1838,942.2083 179.99724,941.7869 C 178.30576,941.4608 178.0052,939.7862 178.37224,932.5369 C 178.68895,926.2819 178.35849,923.6619 177.24724,923.6619 C 175.91783,923.6619 172.54056,921.3201 166.15349,916.00565 C 164.68098,914.78044 161.63391,917.72225 158.80974,923.0994 C 157.47304,925.6445 155.5886,927.1045 153.21599,927.3806 C 149.11413,927.8592 148.47195,925.4125 151.46599,920.6619 C 154.98133,915.08414 155.00742,912.60663 151.59099,908.63065 C 149.78815,906.53255 148.30974,904.15295 148.30974,903.31815 C 148.30974,902.48335 152.38589,899.90966 157.37224,897.5994 C 165.45159,893.85607 167.75339,893.38063 178.34099,893.38065 C 178.66945,893.32117 179.01745,893.27767 179.37224,893.25565 z" />
    <path
       id="path5045"
       style="fill:#f9f9f9"
       d="M -77.690258,650.3494 C -73.744928,655.60213 -72.629398,658.49119 -72.096508,664.88065 C -71.861218,667.70178 -71.191018,670.38157 -70.596508,670.81815 C -68.322628,672.48788 -65.180858,676.97774 -64.315258,679.81815 C -63.598258,684.13227 -97.987418,691.88416 -103.40901,694.4119 C -112.1227,699.84555 -112.36228,699.30684 -112.50276,675.2869 C -112.60437,657.90814 -112.2812,653.62784 -110.65901,652.00565 C -103.21953,643.37914 -97.248128,647.51243 -89.721508,644.0994 C -85.508398,642.01186 -80.261988,647.5062 -77.690258,650.3494 z M -97.534008,661.94315 C -98.107558,661.95014 -98.649258,662.07298 -99.096508,662.3494 C -99.866918,662.82553 -100.13802,663.76924 -99.721508,664.44315 C -98.690708,666.11103 -93.877768,666.00927 -93.877758,664.31815 C -93.877758,662.98572 -95.813358,661.92217 -97.534008,661.94315 z M -86.427608,660.46771 C -87.890088,660.46771 -89.052608,661.33963 -89.052608,662.43646 C -89.052608,664.65174 -88.806968,664.75289 -85.865108,663.62396 C -82.924118,662.49539 -83.289358,660.46768 -86.427608,660.46771 z M 229.96599,667.9119 L 235.49724,669.7244 C 238.73066,670.79154 243.56765,674.13123 247.21599,677.81815 C 248.58801,679.20468 249.73872,680.28846 250.74724,681.19315 C 249.48862,683.99334 247.68916,688.13837 246.90349,688.8494 C 246.09519,689.14112 236.73455,708.82187 236.49724,711.31815 C 238.73016,723.92213 243.81177,726.79132 252.09099,733.9119 C 257.43431,733.20395 258.87224,734.25906 258.87224,738.8494 C 256.7988,748.09857 250.59162,752.52664 250.34099,762.1619 C 249.47664,781.10935 269.91671,785.66766 285.21599,786.4119 L 285.21599,802.2244 C 285.21599,815.36566 284.80586,818.54956 282.84099,821.1619 C 278.65936,828.55042 272.86637,833.76208 265.43474,837.8494 C 263.46217,839.22225 254.97622,845.43863 248.46599,848.2244 C 240.32914,843.66114 230.21702,844.98144 222.02849,848.81815 C 220.77257,849.55916 221.48541,849.64482 223.99724,849.06815 C 229.28386,847.85442 241.53188,847.85564 246.15349,849.06815 C 248.22725,849.26447 244.48948,850.84531 243.80974,851.25565 C 240.41789,851.31876 227.123,855.20305 225.96599,856.4744 C 225.60403,856.87215 221.84869,858.95883 217.62224,861.13065 C 209.42479,865.34298 207.46811,867.06815 210.77849,867.06815 C 211.90711,867.06815 212.80974,866.47956 212.80974,865.75565 C 213.73412,864.10561 215.63265,864.59494 216.77849,863.0994 C 216.77849,862.37547 217.59637,861.78691 218.62224,861.7869 C 219.64813,861.7869 223.04804,860.68799 226.18474,859.3494 C 238.41953,854.1283 248.26666,854.87918 236.84099,860.1619 C 234.12626,861.41706 231.7073,862.90018 231.46599,863.44315 C 231.22467,863.9861 229.88477,864.44312 228.49724,864.44315 C 223.23146,866.68665 228.74692,866.85788 232.18474,864.44315 C 235.34831,861.95469 241.77849,860.78266 241.77849,862.69315 C 241.77849,864.2518 237.4613,868.38065 235.84099,868.38065 C 234.9795,868.38065 233.1922,869.60635 231.84099,871.0994 C 229.5191,873.66505 229.69721,873.6323 235.24724,870.75565 C 238.47706,869.0816 242.60107,866.38448 244.40349,864.75565 C 248.6544,860.91413 249.92952,861.01133 248.90349,865.0994 C 247.9103,868.06767 244.09039,870.20478 241.68474,872.2869 C 239.19631,874.41426 237.74206,876.15852 238.46599,876.1619 C 242.5789,873.14464 251.60532,866.97918 253.59099,863.13065 C 257.92982,859.19729 269.93074,850.9665 274.87224,848.63065 C 278.69902,856.73121 268.85593,880.09812 266.18474,886.5994 C 253.84045,900.51597 219.81918,908.90418 240.27849,932.8806 C 241.11342,932.8818 242.89998,933.5705 244.24724,934.4119 C 246.33623,935.7165 246.50193,936.6347 245.40349,940.6619 C 240.55476,951.9406 237.58403,965.2771 229.59099,974.7869 C 229.04805,975.0282 228.62224,976.268 228.62224,977.5682 C 228.62224,981.7883 225.88355,982.7205 217.74724,981.2244 C 211.90123,980.1494 210.18474,979.2778 210.18474,977.4744 C 214.73615,967.2535 218.87215,961.3127 219.65349,950.1619 C 219.87387,945.5936 220.48339,941.5613 221.02849,941.2244 C 222.3956,940.3795 222.27328,934.4966 220.87224,933.6306 C 220.24433,933.2437 219.37508,930.4114 218.93474,927.3182 C 218.49442,924.2237 217.76125,919.01332 217.30974,915.75565 C 207.42179,883.2152 180.13387,889.96228 154.90349,894.0994 C 148.45736,895.11506 133.14015,898.65768 129.90349,899.88065 C 48.407222,926.8478 46.529152,916.04828 7.3409921,923.0369 C 1.2437621,937.0737 -13.090688,962.6286 -14.909008,977.8806 C -14.909008,980.4289 -15.412638,980.5636 -22.284008,979.7556 C -29.322108,978.9286 -31.752138,973.479 -32.221508,969.1306 C -32.042658,968.7351 -31.825658,967.8434 -31.471508,966.4432 C -27.338358,954.2942 -25.349398,941.5964 -23.565258,928.9119 C -21.685778,921.7173 -39.898358,911.35697 -46.877758,908.31815 C -27.942548,887.08504 -0.99674794,838.97218 -62.690258,824.6619 C -61.339308,814.24837 -61.633648,803.08206 -70.409008,795.7244 C -79.814178,789.93046 -90.989138,787.62585 -101.94026,787.0369 C -104.16931,773.81405 -103.03664,762.98161 -104.31526,749.63065 C -72.265938,750.82483 -44.820008,738.17381 -37.221508,726.8494 C -32.426498,718.74816 -32.814248,717.83581 -36.096508,708.00565 C -49.394058,678.21768 -78.017388,678.63263 -33.971508,679.50565 C -26.732218,679.62755 -17.772428,680.18681 -14.034008,680.75565 C -6.6136579,681.88469 -5.7245279,683.05782 -5.6902579,692.1619 C -1.9041679,715.30917 -3.4078979,732.46776 59.528492,737.2869 C 65.388432,764.80266 94.053366,786.69762 134.43474,778.6619 C 157.77968,772.78661 173.10017,750.61404 175.02849,708.7869 C 189.27414,702.85938 205.42626,692.78382 209.77849,676.7244 C 229.38067,677.4649 223.23683,670.8494 229.96599,667.9119 z M 197.27849,750.9119 C 189.61509,751.19342 182.50174,756.4986 183.65349,768.06815 C 183.7982,775.27745 186.59483,779.81772 191.40349,780.63065 C 211.66232,782.93203 207.58999,777.79122 214.21599,767.4744 C 215.35506,756.72482 205.96368,750.59284 197.27849,750.9119 z M 26.872242,752.5994 C 18.447422,752.97759 10.623132,758.59464 4.0284921,774.25565 C 2.5452021,782.67076 1.6650721,790.67895 10.090992,795.7869 C 19.086252,797.3304 25.375632,793.04896 30.497242,802.9744 C 33.613842,809.59216 38.642842,810.56776 45.153492,809.5369 C 60.268732,807.14115 65.448432,798.20647 66.715992,783.94315 C 66.715992,772.80774 64.334272,768.02617 56.997242,764.4744 C 46.743932,758.46962 36.420372,752.17078 26.872242,752.5994 z M 159.24724,780.1619 C 150.2923,780.49752 141.76203,793.53529 140.87224,801.13065 C 143.29762,809.72139 131.15841,812.06966 132.21599,820.06815 C 134.98901,827.4818 138.04571,837.51258 147.34099,836.19315 C 160.59838,833.95917 161.49724,833.90929 161.49724,835.2869 C 161.49724,836.06265 164.01429,837.89 167.09099,839.3494 C 186.89872,846.05347 203.32972,831.48431 203.59099,813.06815 L 203.59099,802.7869 L 198.68474,799.7244 C 192.57598,793.92127 177.47969,800.41508 175.40349,791.56815 C 174.27186,780.59784 166.34066,783.58007 165.43474,782.19315 C 163.41307,780.69654 161.31377,780.08445 159.24724,780.1619 z M -48.065258,916.44315 C -36.703668,920.6798 -34.535968,916.12894 -26.627758,926.0369 C -28.920838,941.2003 -40.617858,957.5774 -48.096508,971.1932 C -50.815428,976.4122 -51.505068,976.9404 -55.377758,976.5682 C -58.466198,977.1215 -59.251478,974.1698 -61.627758,973.6932 C -64.081728,973.6932 -64.158028,971.1408 -61.815258,967.7244 C -56.548478,953.0883 -54.788448,928.6165 -48.065258,916.44315 z M 198.65349,931.5682 C 199.59463,931.5478 199.81498,932.9188 200.15349,941.0369 C 200.23534,942.9996 201.57405,945.655 203.12224,946.9119 C 205.52916,948.8661 205.72454,949.6641 204.46599,952.5369 C 202.25946,956.2647 200.50732,960.0038 199.09099,964.1306 C 196.95813,970.6114 196.53492,971.0491 192.62224,970.8806 C 183.93266,970.5074 182.71244,969.8475 183.37224,966.0369 C 183.70949,964.0892 184.68587,961.8859 185.55974,961.1619 C 187.7638,959.336 193.40915,943.6892 193.80974,938.2869 C 194.108,934.2646 196.00123,931.622 198.65349,931.5682 z" />
    <path
       id="path5007"
       style="fill:#008000"
       d="M -80.690258,994.7244 C -81.622308,991.9326 -83.888508,993.3797 -82.096508,987.1306 C -81.419108,984.7687 -81.380128,983.1522 -82.002758,983.5369 C -82.625378,983.9217 -83.419978,983.1877 -83.752758,981.9119 C -84.085528,980.6362 -84.397428,983.1634 -84.471508,987.5056 C -84.545598,991.8492 -84.249638,996.7287 -83.815258,998.3494 C -83.000418,1001.3896 -80.690268,1001.2036 -80.690258,998.0994 C -79.584908,996.7418 -80.070508,996.3832 -80.690258,994.7244 z M -99.127758,959.8494 L -99.127758,964.5682 C -99.128338,967.1623 -98.722798,969.6907 -98.221508,970.1932 C -97.720238,970.6945 -97.127198,972.4266 -96.909008,974.0369 C -96.579618,976.4676 -95.439928,981.3517 -94.534008,984.1932 C -94.418578,984.5551 -93.496088,988.5749 -92.502758,993.0994 C -91.509408,997.6239 -90.490708,1001.3169 -90.221508,1001.3182 C -88.284678,1001.3182 -93.553468,971.7138 -96.659008,965.1306 L -99.127758,959.8494 z M -114.81526,967.0994 C -115.60283,967.0994 -116.26457,967.8519 -116.28401,968.7556 C -116.30345,969.6606 -116.67052,975.5618 -117.09651,981.8806 C -117.52251,988.1995 -117.48098,995.4567 -117.00276,998.0056 C -116.52452,1000.5548 -115.97337,1002.6319 -115.78401,1002.6306 C -115.59466,1002.6306 -115.3459,996.8452 -115.22151,989.7869 C -115.09713,982.7286 -114.63132,974.7517 -114.19026,972.0369 C -113.67522,968.8666 -113.89554,967.0993 -114.81526,967.0994 z M 39.465992,968.1619 C 39.328472,968.2003 39.173332,968.36 38.997242,968.6619 C 38.263642,969.9197 38.073222,974.0537 38.559742,978.1932 C 39.032852,982.2185 39.641222,985.5369 39.903492,985.5369 C 40.165792,985.5369 40.363012,981.2229 40.340992,975.9744 C 40.317442,970.3605 40.061892,967.9956 39.465992,968.1619 z M 263.90349,968.9744 C 262.64333,969.3451 262.4656,987.7466 263.71599,995.3182 C 264.51934,1000.1825 264.63924,1000.2958 265.77849,997.2869 C 267.20942,993.5077 265.76072,970.0763 264.02849,969.0056 C 263.98559,968.9791 263.94414,968.9624 263.90349,968.9744 z M 126.49724,969.8182 C 126.39154,969.8308 126.28971,969.8746 126.18474,969.9119 C 125.34841,970.209 126.01871,972.9875 127.87224,977.0056 C 129.5515,980.6463 131.25416,985.6796 131.65349,988.1932 C 132.05282,990.7059 132.83214,994.2584 133.40349,996.0682 L 134.43474,999.3494 L 134.90349,996.3182 C 135.15468,994.6511 134.47126,990.2044 133.37224,986.4432 C 132.27324,982.6807 131.0513,978.1268 130.65349,976.3182 C 129.74413,972.1811 128.08274,969.6266 126.49724,969.8182 z M 93.278492,973.6932 C 92.239152,973.6932 83.789012,996.7958 83.872242,999.4119 C 83.945572,1001.7165 86.223781,996.7529 89.059742,988.1306 C 90.601902,983.4423 92.436929,978.5745 93.122242,977.3182 C 94.652952,974.5104 94.687196,973.6919 93.278492,973.6932 z M 83.372242,973.8806 C 83.318112,973.8661 83.249572,973.8835 83.184742,973.9119 C 83.115592,973.9422 83.047562,974.0178 82.965992,974.0994 C 81.969752,975.0957 78.652112,992.8795 78.747242,996.7244 C 78.815472,999.4821 79.741272,996.5415 82.372242,985.1619 C 83.788512,979.0362 84.184152,974.0989 83.372242,973.8806 z M 248.40349,975.0056 C 246.80948,975.0056 244.40349,984.7765 244.40349,991.2556 C 244.40349,1004.0769 248.24424,995.295 249.05974,980.5994 C 249.23047,977.5227 248.92842,975.0069 248.40349,975.0056 z M 18.747242,976.6306 C 18.614782,976.6217 18.457842,976.6868 18.247242,976.8182 C 17.496422,977.2822 16.507842,981.0731 16.059742,985.2244 C 15.611652,989.3756 14.685712,993.7798 13.997242,995.0369 C 13.308782,996.2939 12.781942,998.3852 12.840992,999.6619 C 13.029922,1003.7463 16.504322,994.1775 17.309742,987.3494 C 17.727182,983.8105 18.418112,979.7994 18.840992,978.4432 C 19.196832,977.3008 19.144612,976.6578 18.747242,976.6306 z M 281.24724,976.9744 L 278.68474,981.5682 C 277.27305,984.1019 275.70238,989.0033 275.21599,992.4432 C 274.72962,995.8817 273.8154,998.6919 273.18474,998.6932 C 272.55408,998.6932 272.05975,1000.1646 272.05974,1001.9744 C 272.05974,1003.7842 272.64831,1005.2556 273.37224,1005.2556 C 274.09617,1005.2556 274.68475,1004.3193 274.68474,1003.1619 C 274.68474,1002.0044 275.50344,999.1932 276.52849,996.9119 C 277.55356,994.6307 278.70581,990.9887 279.05974,988.8182 C 279.41366,986.6463 280.04016,983.0837 280.46599,980.9119 L 281.24724,976.9744 z M 117.55974,977.4119 C 117.5193,977.4273 117.4938,977.4619 117.46599,977.5056 C 117.06826,978.1493 118.97479,983.1535 121.68474,988.6306 C 124.3947,994.1089 127.15326,998.6038 127.84099,998.6306 C 128.52872,998.6587 128.39721,997.9681 127.52849,997.0994 C 126.65978,996.2307 125.93474,994.5164 125.93474,993.2869 C 125.93474,990.2845 118.81361,976.935 117.55974,977.4119 z M 157.30974,978.9744 C 156.86738,979.014 156.25062,979.1707 155.62224,979.4119 C 154.45333,979.8604 153.59099,981.7671 153.59099,983.9119 C 153.59099,985.9616 153.05371,988.1941 152.40349,988.8806 C 151.75327,989.5685 150.83769,993.4002 150.37224,997.3806 C 149.55461,1004.375 149.65998,1004.1806 153.87224,992.0994 C 156.27012,985.2221 158.09984,979.3698 157.93474,979.0994 C 157.89347,979.0318 157.82376,978.9936 157.68474,978.9744 C 157.58048,978.96 157.4572,978.9612 157.30974,978.9744 z M -2.3777579,981.0056 C -2.4229579,980.9988 -2.4613479,981.0174 -2.5027579,981.0369 C -2.8039479,981.1787 -2.9863879,982.0425 -3.0027579,983.7244 C -3.0247779,985.9867 -2.6716179,989.6615 -2.2215079,991.9119 C -0.99368794,998.051 1.2318321,995.3625 0.18474206,989.0056 C -0.61382794,984.1577 -1.6997779,981.1098 -2.3777579,981.0056 z M 31.872242,982.9744 C 31.585452,983.0274 31.494362,984.238 31.747242,986.8494 C 32.062712,990.1071 32.726182,994.6916 33.215992,997.0369 C 34.674072,1004.0188 36.195392,1000.6293 34.872242,993.3494 C 33.707632,986.9418 32.419752,982.8732 31.872242,982.9744 z M 50.434742,983.0056 C 50.173642,983.3073 49.593652,988.4395 49.153492,994.4119 C 48.661272,1001.0906 48.869312,1005.2556 49.653492,1005.2556 C 50.377982,1005.2556 50.903492,1000.3311 50.903492,993.8494 C 50.903492,987.5753 50.695842,982.704 50.434742,983.0056 z M -130.15901,984.6619 C -131.17364,985.078 -129.97479,994.9634 -128.15901,999.6619 C -127.24972,1002.0146 -126.0094,1003.9419 -125.40901,1003.9432 C -123.26068,1003.9432 -126.87906,988.1966 -129.78401,984.8806 C -129.93809,984.7048 -130.05405,984.6189 -130.15901,984.6619 z M 142.40349,985.5369 C 141.67956,985.5369 141.12442,986.4205 141.18474,987.5056 C 141.24508,988.5915 141.40785,993.0564 141.52849,997.4432 C 141.65073,1001.887 142.26242,1005.0775 142.93474,1004.6619 C 144.56941,1003.6516 144.06711,985.5369 142.40349,985.5369 z M 98.747242,986.0369 C 98.628656,986.0339 98.465022,986.0767 98.278492,986.1932 C 97.562852,986.6354 96.997243,987.5432 96.997242,988.2244 C 96.997242,990.1177 97.934724,989.7223 98.809742,987.4432 C 99.146852,986.5647 99.103,986.0459 98.747242,986.0369 z M -105.44026,986.1932 L -105.59651,991.6619 C -105.66923,994.6794 -105.28918,998.2421 -104.75276,999.5682 C -103.83952,1001.8259 -103.74209,1001.8144 -103.37776,999.3494 C -103.16378,997.9015 -103.54385,994.3381 -104.22151,991.4432 L -105.44026,986.1932 z M 236.90349,986.6306 C 236.74752,986.5843 236.8584,988.1071 237.12224,991.4432 C 237.40852,995.0627 238.29346,999.7267 239.09099,1001.8182 C 241.13052,1007.1659 241.88571,1005.5718 240.27849,999.3182 C 239.53955,996.4428 238.42505,992.0082 237.77849,989.4744 C 237.31501,987.6582 237.0248,986.6679 236.90349,986.6306 z M -11.221508,986.7556 C -12.865138,986.8711 -14.151728,990.6633 -13.784008,995.2869 C -13.494818,998.9231 -12.778808,1000.9733 -11.971508,1000.4744 C -11.226518,1000.014 -10.922478,997.1194 -11.284008,993.9119 C -11.682108,990.38 -11.408958,988.1618 -10.565258,988.1619 C -9.8095979,988.1619 -9.5688879,987.782 -10.034008,987.3182 C -10.433088,986.9191 -10.842208,986.7302 -11.221508,986.7556 z M 254.62224,986.8494 C 253.08468,986.8494 253.38164,988.1577 256.59099,995.9432 C 258.67068,1000.9875 259.65495,1002.3156 259.93474,1000.4119 C 260.3728,997.4315 256.22705,986.8494 254.62224,986.8494 z M 59.309742,987.0994 C 59.040412,987.1986 58.891882,987.8713 58.934742,988.9119 C 58.997902,990.4453 59.295822,990.7744 59.715992,989.7244 C 60.096212,988.7743 60.059612,987.6292 59.622242,987.1932 C 59.512902,987.0838 59.399522,987.0663 59.309742,987.0994 z M 163.62224,987.5994 C 163.25356,987.6378 162.62768,988.1192 161.59099,989.0056 C 160.20671,990.1908 159.29057,991.8326 159.52849,992.6306 C 159.76643,993.4292 160.32624,995.7629 160.77849,997.8182 C 161.45344,1000.8845 161.91385,1001.2627 163.46599,999.9744 C 164.50602,999.1113 165.13312,997.1529 164.84099,995.5994 C 164.54885,994.0459 164.26979,991.4386 164.21599,989.8182 C 164.1642,988.2566 164.09626,987.55 163.62224,987.5994 z M 40.840992,987.7869 C 40.572002,987.8544 40.700872,989.9314 40.997242,994.7244 C 41.288192,999.4299 41.570722,1003.4831 41.622242,1003.7244 C 41.673762,1003.9658 42.436092,1003.9359 43.340992,1003.6306 C 45.290112,1002.9749 44.853292,997.7886 42.278492,991.0056 C 41.481402,988.9062 41.050212,987.7344 40.840992,987.7869 z M 288.37224,989.7869 C 288.07728,989.8685 288.09591,990.6234 288.37224,992.1306 C 288.70111,993.925 289.07822,995.7051 289.21599,996.0682 C 289.35376,996.4302 289.74511,995.6006 290.09099,994.2556 C 290.43687,992.9119 290.05977,991.1619 289.24724,990.3494 C 288.83763,989.9398 288.54922,989.7379 288.37224,989.7869 z M 104.05974,994.9744 C 103.79041,995.0736 103.64188,995.7774 103.68474,996.8182 C 103.74789,998.3515 104.04582,998.6819 104.46599,997.6306 C 104.84621,996.6806 104.80961,995.5367 104.37224,995.0994 C 104.2629,994.9901 104.14952,994.9413 104.05974,994.9744 z M 93.778492,996.0682 C 93.416532,996.0682 92.490853,997.2448 91.715992,998.6932 C 90.941122,1000.141 90.604023,1001.3169 90.965992,1001.3182 C 91.327952,1001.3182 92.253623,1000.1397 93.028492,998.6932 C 93.803362,997.2453 94.140462,996.0682 93.778492,996.0682 z M -50.690258,997.3806 C -50.867468,997.3806 -51.185678,997.8144 -51.752758,998.6932 C -52.454518,999.7791 -53.034008,1001.5455 -53.034008,1002.6306 C -53.034008,1004.3856 -52.886928,1004.3869 -51.752758,1002.6306 C -51.050988,1001.5447 -50.471508,999.7783 -50.471508,998.6932 C -50.471508,997.8156 -50.513048,997.3819 -50.690258,997.3806 z" />
  </g>
</svg>
